<svg xmlns="http://www.w3.org/2000/svg" width="44.906166mm" height="30.04366mm">

  <path d="m 22.116183,34.830383 h 21.5552 v 3.4522 h -21.5552 z m 21.5552,5.6414 h -21.5552 v 3.4101 h 8.6305 v 5.8519 h 4.2942 v -5.8519 h 8.6305 z m -10.7776,10.7776 q -3.789,0 -7.157,-1.4735 -3.3259,-1.4314 -5.8098,-3.9153 -2.4839,-2.4839 -3.9153,-5.8098 -1.4314,-3.3259 -1.4314,-7.157 v -1.7261 l 17.2189,-4.0837 v 6.0203 l 22.0183,-5.3888 q -0.8841,-3.5364 -2.8628,-6.5255 -1.9366,-3.0312 -4.69415,-5.19935 -2.75755,-2.16815 -6.16765,-3.43115 -3.4101,-1.2209 -7.1991,-1.2209 -4.4626,0 -8.3779,1.7261 -3.9153,1.684 -6.84125,4.60995 -2.92595,2.92595 -4.65205,6.88335 -1.684,3.9153 -1.684,8.3358 0,4.4626 1.684,8.3779 1.7261,3.9153 4.65205,6.8623 2.92595,2.947 6.84125,4.631 3.9153,1.684 8.3779,1.684 3.4943,0 6.6518,-1.0104 3.1575,-1.0525 5.8098,-2.9049 2.6523,-1.8524 4.6731,-4.4205 1.9787,-2.6102 3.1154,-5.6414 h -3.4522 q -1.1367,2.3155 -2.8628,4.2942 -1.7261,1.9787 -3.9153,3.4101 -2.1892,1.4314 -4.7152,2.2313 -2.5681,0.842 -5.3046,0.842 z m 0,-36.6691 q 2.8207,0 5.4309,0.7999 2.5681,0.842 4.7573,2.3155 2.1892,1.4735 3.8732,3.5364 1.684,2.0629 2.7365,4.5468 l -15.0718,3.6627 v -6.0203 l -19.4081,4.7573 q 0.7999,-2.9049 2.4839,-5.3888 1.684,-2.526 4.02055,-4.3363 2.33655,-1.8103 5.15725,-2.8207 2.8628,-1.0525 6.0203,-1.0525 z m 58.1822,5.4309 v 25.8494 h -25.8494 v -25.8494 z m 2.1892,-2.1471 h -30.1857 v 30.1857 h 30.1857 z m -21.5552,23.7023 v -17.2189 h 6.2729 q 0.9683,0 1.684,0.10525 0.7157,0.10525 1.1788,0.35785 0.5052,0.2526 0.8841,0.65255 0.3789,0.39995 0.6736,0.94725 0.2947,0.5473 0.44205,1.19985 0.14735,0.65255 0.14735,1.41035 0,0.9683 -0.2526,1.7682 -0.2526,0.7999 -0.7578,1.3893 -0.5052,0.5894 -1.24195,0.98935 -0.73675,0.39995 -1.70505,0.56835 0.3789,0.2105 0.6736,0.4631 0.2947,0.2526 0.5052,0.4631 0.421,0.5052 0.7999,1.0525 0.3789,0.5473 0.6736,1.1788 l 2.4839,4.6731 h -2.3576 l -1.8945,-3.5785 q -0.5473,-1.0525 -0.9683,-1.7682 -0.421,-0.7157 -0.6736,-1.0525 -0.2947,-0.3789 -0.56835,-0.6315 -0.27365,-0.2526 -0.52625,-0.3789 -0.2526,-0.1263 -0.61045,-0.18945 -0.35785,-0.06315 -0.86305,-0.06315 h -2.1471 v 7.6622 z m 1.8524,-9.6409 h 4.0416 q 0.6315,0 1.1367,-0.0842 0.5052,-0.0842 0.842,-0.2105 0.3368,-0.1684 0.61045,-0.421 0.27365,-0.2526 0.48415,-0.5894 0.2105,-0.3368 0.2947,-0.73675 0.0842,-0.39995 0.0842,-0.86305 0,-0.6315 -0.18945,-1.15775 -0.18945,-0.52625 -0.56835,-0.90515 -0.3789,-0.3368 -0.94725,-0.52625 -0.56835,-0.18945 -1.32615,-0.18945 h -4.4626 z" fill="#000000" />

  <text x="102" y="36.725483" font-size="9" font-family="sans-serif" fill="#000000">214-108048</text>

  <text x="12.104582" y="70.266487" font-size="8" font-family="sans-serif" fill="#000000">Operation in the 5.15-5.25 bands</text>

  <text x="12.104582" y="78.326485" font-size="8" font-family="sans-serif" fill="#000000">is restricted to indoor use only</text>

  <path d="m 15.602166,89.771083 h 0.576 v -1.824 h 2.552 v 1.12 h 0.552 v -1.552 h -3.104 v -0.488 h 2.64 v -0.464 h -5.808 v 0.464 h 2.592 v 0.488 h -3.048 v 1.552 h 0.536 v -1.12 h 2.512 z m 1,-0.208 h 1.904 v -0.376 h -1.904 z m 0,-1.184 v 0.368 h 1.712 v -0.368 z m -1.408,0 h -1.688 v 0.368 h 1.688 z m -1.84,1.184 h 1.84 v -0.376 h -1.84 z m 0.448,2.408 v -0.544 h 1.776 v 0.544 z m 1.776,-1.496 v 0.552 h -1.776 v -0.552 z m 2.472,0.552 h -1.904 v -0.552 h 1.904 z m -1.904,0.944 v -0.544 h 1.904 v 0.544 z m 0.6,1.016 c -0.504,0 -0.6,-0.056 -0.6,-0.328 v -0.256 h 2.48 v -2.36 h -5.392 v 2.776 h 0.568 v -0.416 h 1.776 v 0.256 c 0,0.64 0.248,0.792 1.144,0.792 h 1.84 c 0.752,0 0.936,-0.24 1.024,-1.208 -0.168,-0.032 -0.384,-0.112 -0.52,-0.2 -0.04,0.8 -0.12,0.944 -0.544,0.944 z m 5.648,-5.824 c -0.296,-0.264 -0.912,-0.632 -1.384,-0.864 l -0.336,0.424 c 0.472,0.256 1.08,0.648 1.376,0.92 z m -0.4,2.072 c -0.312,-0.24 -0.944,-0.584 -1.408,-0.8 l -0.344,0.432 c 0.488,0.24 1.112,0.608 1.408,0.856 z m -0.248,1.264 c -0.392,0.904 -0.928,1.944 -1.304,2.56 l 0.52,0.36 c 0.408,-0.736 0.88,-1.728 1.24,-2.568 z m 4.504,-0.632 c -0.24,0.696 -0.6,1.28 -1.048,1.76 -0.48,-0.504 -0.856,-1.096 -1.12,-1.76 z m -1.568,-1.936 v 1.4 h -1.352 v -1.4 z m 1.928,1.376 -0.112,0.024 h -1.232 v -1.4 h 1.504 c -0.136,0.36 -0.28,0.728 -0.408,0.984 l 0.504,0.16 c 0.224,-0.4 0.48,-1.032 0.68,-1.608 l -0.424,-0.12 -0.096,0.024 h -1.76 v -1.152 h -0.584 v 1.152 h -1.928 v 2.016 c 0,1.152 -0.088,2.728 -0.96,3.832 0.152,0.056 0.392,0.208 0.496,0.304 0.784,-1.024 0.992,-2.48 1.032,-3.656 h 0.2 c 0.312,0.824 0.728,1.544 1.272,2.144 -0.56,0.464 -1.216,0.8 -1.928,1.04 0.128,0.112 0.304,0.352 0.384,0.496 0.712,-0.264 1.376,-0.632 1.96,-1.136 0.568,0.496 1.24,0.872 2.024,1.12 0.088,-0.16 0.248,-0.384 0.392,-0.512 -0.776,-0.208 -1.44,-0.552 -2,-1.008 0.6,-0.656 1.072,-1.488 1.352,-2.528 z m 3.952,-2.208 c -0.336,-0.288 -1.016,-0.624 -1.568,-0.824 l -0.32,0.44 c 0.552,0.216 1.224,0.592 1.552,0.872 z m -0.416,2.088 c -0.352,-0.256 -1.048,-0.56 -1.584,-0.736 l -0.312,0.456 c 0.552,0.192 1.24,0.528 1.576,0.784 z m -0.184,1.288 c -0.432,0.912 -1.024,1.944 -1.432,2.568 l 0.504,0.384 c 0.448,-0.744 0.976,-1.728 1.376,-2.568 z m 5.664,2.752 c -0.272,-0.632 -0.928,-1.592 -1.528,-2.296 l -0.504,0.264 c 0.28,0.344 0.568,0.744 0.824,1.136 -0.944,0.064 -1.896,0.12 -2.72,0.16 0.352,-0.696 0.728,-1.608 1.024,-2.368 h 2.768 v -0.568 h -2.272 v -1.464 h 1.896 v -0.56 h -1.896 v -1.304 h -0.608 v 1.304 h -1.824 v 0.56 h 1.824 v 1.464 h -2.224 v 0.568 h 1.632 c -0.24,0.76 -0.624,1.728 -0.96,2.408 l -0.664,0.032 0.088,0.592 c 1.104,-0.072 2.712,-0.176 4.256,-0.296 0.144,0.248 0.256,0.48 0.336,0.68 z m 1.72,-6.368 c 0,0.168 -0.032,0.376 -0.056,0.56 -0.096,0.648 -0.352,2.008 -0.352,3.176 0,1.072 0.128,1.984 0.288,2.544 l 0.576,-0.04 -0.024,-0.28 c 0,-0.088 0.016,-0.24 0.04,-0.352 0.072,-0.376 0.36,-1.216 0.56,-1.776 l -0.344,-0.256 c -0.128,0.312 -0.304,0.776 -0.44,1.136 -0.048,-0.384 -0.064,-0.704 -0.064,-1.088 0,-0.888 0.232,-2.304 0.384,-3.032 0.032,-0.144 0.104,-0.4 0.152,-0.536 z m 1.952,3.84 c -0.072,0.336 -0.128,0.648 -0.128,0.936 0,0.744 0.592,1.184 1.92,1.184 0.824,0 1.488,-0.064 1.976,-0.16 l -0.008,-0.672 c -0.64,0.144 -1.248,0.208 -1.96,0.208 -1.088,0 -1.328,-0.352 -1.328,-0.712 0,-0.216 0.032,-0.44 0.104,-0.728 z m 0.272,-2.52 c 0.864,0.088 2.4,0.088 3.248,0 v -0.656 c -0.792,0.112 -2.392,0.144 -3.256,0 z m 8.08,3.648 c 0,0.544 -0.28,0.816 -0.864,0.816 -0.76,0 -1.2,-0.24 -1.2,-0.68 0,-0.432 0.464,-0.712 1.28,-0.712 0.264,0 0.52,0.024 0.776,0.08 0,0.2 0.008,0.368 0.008,0.496 z m 0.536,-2.992 c 0.648,-0.016 1.664,-0.064 2.368,-0.128 l -0.024,-0.608 c -0.712,0.096 -1.712,0.136 -2.344,0.152 0,-0.312 -0.008,-0.592 0,-0.808 0.008,-0.24 0.032,-0.616 0.064,-0.784 h -0.768 c 0.032,0.152 0.056,0.496 0.064,0.784 0.008,0.336 0.008,0.992 0.008,1.448 0,0.472 0.032,1.2 0.064,1.84 -0.224,-0.032 -0.448,-0.048 -0.672,-0.048 -1.368,0 -1.992,0.592 -1.992,1.304 0,0.904 0.808,1.256 1.896,1.256 1.056,0 1.456,-0.56 1.456,-1.208 0,-0.144 -0.008,-0.32 -0.016,-0.528 0.824,0.288 1.552,0.792 2.056,1.304 l 0.384,-0.592 c -0.576,-0.52 -1.448,-1.072 -2.464,-1.352 -0.04,-0.688 -0.08,-1.456 -0.08,-1.976 z m 5.59575,-2.232 c -0.008,0.192 -0.032,0.432 -0.064,0.68 -0.096,0.64 -0.24,1.808 -0.24,2.56 0,0.512 0.04,0.96 0.08,1.256 l 0.624,-0.048 c -0.056,-0.392 -0.056,-0.664 -0.016,-0.968 0.096,-1.04 1.008,-2.472 1.992,-2.472 0.84,0 1.256,0.896 1.256,2.144 0,1.992 -1.344,2.68 -3.064,2.944 l 0.376,0.576 c 1.968,-0.36 3.352,-1.328 3.352,-3.528 0,-1.664 -0.76,-2.72 -1.816,-2.72 -1,0 -1.832,0.984 -2.144,1.8 0.048,-0.552 0.2,-1.616 0.368,-2.2 z m 7.440843,0.694812 v 1.242188 h 1.480469 v 0.558593 h -1.480469 v 2.375 q 0,0.535157 0.144532,0.6875 0.148437,0.152344 0.597656,0.152344 h 0.738281 v 0.601563 h -0.738281 q -0.832031,0 -1.148438,-0.308594 -0.316406,-0.3125 -0.316406,-1.132813 v -2.375 h -0.527344 v -0.558593 h 0.527344 v -1.242188 z m 2.539063,-0.214844 h 3.097656 v 0.664063 h -2.375 v 1.429687 q 0.171875,-0.05859 0.34375,-0.08594 0.171875,-0.03125 0.34375,-0.03125 0.976563,0 1.546875,0.535156 0.570313,0.535156 0.570313,1.449219 0,0.941406 -0.585938,1.464844 -0.585937,0.519531 -1.652344,0.519531 -0.367187,0 -0.75,-0.0625 -0.378906,-0.0625 -0.785156,-0.1875 v -0.792969 q 0.351563,0.191406 0.726563,0.285156 0.375,0.09375 0.792968,0.09375 0.675782,0 1.070313,-0.355468 0.394531,-0.355469 0.394531,-0.964844 0,-0.609375 -0.394531,-0.964844 -0.394531,-0.355469 -1.070313,-0.355469 -0.316406,0 -0.632812,0.07031 -0.3125,0.07031 -0.640625,0.21875 z m 5.085937,4.839844 h 0.824219 v 0.992188 h -0.824219 z m 2.683594,0.328125 h 1.289063 v -4.449219 l -1.402344,0.28125 v -0.71875 l 1.394531,-0.28125 h 0.789063 v 5.167969 h 1.289062 v 0.664063 h -3.359375 z m 4.964844,-5.167969 h 3.097656 v 0.664063 h -2.375 v 1.429687 q 0.171875,-0.05859 0.34375,-0.08594 0.171875,-0.03125 0.34375,-0.03125 0.976563,0 1.546875,0.535156 0.570313,0.535156 0.570313,1.449219 0,0.941406 -0.585938,1.464844 -0.585937,0.519531 -1.652344,0.519531 -0.367187,0 -0.75,-0.0625 -0.378906,-0.0625 -0.785156,-0.1875 v -0.792969 q 0.351563,0.191406 0.726563,0.285156 0.375,0.09375 0.792968,0.09375 0.675782,0 1.070313,-0.355468 0.394531,-0.355469 0.394531,-0.964844 0,-0.609375 -0.394531,-0.964844 -0.394531,-0.355469 -1.070313,-0.355469 -0.316406,0 -0.632812,0.07031 -0.3125,0.07031 -0.640625,0.21875 z m 4.621094,3.320313 h 2.105468 v 0.640625 h -2.105468 z m 3.363281,-3.320313 h 3.097656 v 0.664063 h -2.375 v 1.429687 q 0.171875,-0.05859 0.34375,-0.08594 0.171875,-0.03125 0.34375,-0.03125 0.976563,0 1.546875,0.535156 0.570313,0.535156 0.570313,1.449219 0,0.941406 -0.585938,1.464844 -0.585937,0.519531 -1.652344,0.519531 -0.367187,0 -0.75,-0.0625 -0.378906,-0.0625 -0.785156,-0.1875 v -0.792969 q 0.351563,0.191406 0.726563,0.285156 0.375,0.09375 0.792968,0.09375 0.675782,0 1.070313,-0.355468 0.394531,-0.355469 0.394531,-0.964844 0,-0.609375 -0.394531,-0.964844 -0.394531,-0.355469 -1.070313,-0.355469 -0.316406,0 -0.632812,0.07031 -0.3125,0.07031 -0.640625,0.21875 z m 5.085937,4.839844 h 0.824219 v 0.992188 h -0.824219 z m 3.226563,0.328125 h 2.753906 v 0.664063 H 91.843853 V 92.25102 q 0.449219,-0.464844 1.222656,-1.246094 0.777344,-0.785156 0.976563,-1.011718 0.378906,-0.425782 0.527344,-0.71875 0.152343,-0.296875 0.152343,-0.582032 0,-0.464843 -0.328125,-0.757812 -0.324218,-0.292969 -0.847656,-0.292969 -0.371094,0 -0.785156,0.128906 -0.410156,0.128907 -0.878906,0.390625 v -0.796875 q 0.476562,-0.191406 0.890625,-0.289062 0.414062,-0.09766 0.757812,-0.09766 0.90625,0 1.445313,0.453125 0.539062,0.453125 0.539062,1.210938 0,0.359375 -0.136719,0.683593 -0.132812,0.320313 -0.488281,0.757813 -0.09766,0.113281 -0.621094,0.65625 -0.523437,0.539062 -1.476562,1.511718 z m 4.421875,-5.167969 h 3.097653 v 0.664063 h -2.374997 v 1.429687 q 0.171875,-0.05859 0.34375,-0.08594 0.171875,-0.03125 0.34375,-0.03125 0.976563,0 1.546877,0.535156 0.57031,0.535156 0.57031,1.449219 0,0.941406 -0.58594,1.464844 -0.585934,0.519531 -1.652341,0.519531 -0.367187,0 -0.75,-0.0625 -0.378906,-0.0625 -0.785156,-0.1875 v -0.792969 q 0.351563,0.191406 0.726563,0.285156 0.375,0.09375 0.792968,0.09375 0.675782,0 1.070313,-0.355468 0.394531,-0.355469 0.394531,-0.964844 0,-0.609375 -0.394531,-0.964844 -0.394531,-0.355469 -1.070313,-0.355469 -0.316406,0 -0.632812,0.07031 -0.3125,0.07031 -0.640625,0.21875 z m 11.539063,5 v -1.566406 h -1.28907 v -0.648437 h 2.07032 v 2.503906 q -0.45703,0.324219 -1.00782,0.492187 -0.55078,0.164063 -1.17578,0.164063 -1.36718,0 -2.14062,-0.796875 -0.76953,-0.800781 -0.76953,-2.226563 0,-1.429687 0.76953,-2.226562 0.77344,-0.800781 2.14062,-0.800781 0.57032,0 1.08203,0.140625 0.51563,0.140625 0.94922,0.414062 v 0.839844 q -0.4375,-0.371094 -0.92968,-0.558594 -0.49219,-0.1875 -1.03516,-0.1875 -1.07031,0 -1.60938,0.597656 -0.53515,0.597657 -0.53515,1.78125 0,1.179688 0.53515,1.777344 0.53907,0.597656 1.60938,0.597656 0.41797,0 0.74609,-0.07031 0.32813,-0.07422 0.58985,-0.226563 z m 2.22656,-5 h 0.78906 v 2.390625 h 2.86719 v -2.390625 h 0.78906 v 5.832032 h -0.78906 v -2.777344 h -2.86719 v 2.777344 h -0.78906 z m 5.67187,1.457032 h 3.41407 v 0.65625 l -2.70313,3.144531 h 2.70313 v 0.574219 h -3.51172 v -0.65625 l 2.70312,-3.144532 h -2.60547 z" aria-label="電波法によりt5.15-5.25 GHz" font-size="8" font-family="sans-serif" fill="#000000" />

  <path d="m 12.770165,99.540268 h 0.552 v -1.08 h 2.48 v 0.84 h -2.136 v 2.272002 h 0.576 v -1.784002 h 1.56 v 2.376002 h 0.576 v -2.376002 h 1.72 v 1.160002 c 0,0.088 -0.032,0.112 -0.144,0.12 -0.104,0.008 -0.48,0.016 -0.904,0 0.072,0.144 0.152,0.344 0.184,0.512 0.56,0 0.928,-0.008 1.152,-0.096 0.232,-0.088 0.288,-0.232 0.288,-0.536 v -1.648002 h -2.296 v -0.84 h 2.52 v 1.08 h 0.568 v -1.568 h -6.696 z m 5.048,-2.552 h -1.44 v -0.784 h 1.44 z m -3.4,-0.784 h 1.392 v 0.784 h -1.392 z m 3.976,-0.504 v -0.792 h -0.576 v 0.792 h -1.44 v -0.832 h -0.568 v 0.832 h -1.392 v -0.792 h -0.56 v 0.792 h -1.304 v 0.504 h 1.304 v 1.272 h 4.536 v -1.272 h 1.296 v -0.504 z m 3.08,-0.288 c 0,0.168 -0.024,0.376 -0.056,0.56 -0.096,0.656 -0.36,2.168 -0.36,3.328 0,1.072002 0.144,1.944002 0.304,2.512002 l 0.568,-0.048 c -0.008,-0.08 -0.024,-0.192 -0.024,-0.272 -0.008,-0.096 0.016,-0.248 0.04,-0.352 0.08,-0.392 0.36,-1.200002 0.56,-1.752002 l -0.336,-0.264 c -0.136,0.32 -0.32,0.792 -0.448,1.152002 -0.056,-0.384002 -0.072,-0.696002 -0.072,-1.080002 0,-0.888 0.232,-2.456 0.392,-3.192 0.024,-0.144 0.088,-0.408 0.136,-0.536 z m 4.04,4.912002 c 0,0.528 -0.192,0.856 -0.864,0.856 -0.568,0 -0.952,-0.224 -0.952,-0.616 0,-0.368 0.408,-0.632002 1,-0.632002 0.28,0 0.552,0.04 0.808,0.128002 0.008,0.096 0.008,0.192 0.008,0.264 z m 2.16,0.392 c -0.416,-0.368 -0.92,-0.776002 -1.56,-1.032002 -0.032,-0.664 -0.088,-1.456 -0.096,-2.248 0.472,-0.032 0.936,-0.08 1.368,-0.152 v -0.624 c -0.424,0.088 -0.888,0.152 -1.368,0.184 0.008,-0.368 0.016,-0.736 0.024,-0.952 0.008,-0.16 0.024,-0.32 0.048,-0.472 h -0.728 c 0.024,0.136 0.04,0.344 0.04,0.48 v 0.984 c -0.248,0.008 -0.496,0.016 -0.744,0.016 -0.464,0 -0.896,-0.024 -1.344,-0.072 v 0.608 c 0.464,0.024 0.88,0.048 1.328,0.048 0.256,0 0.504,-0.008 0.76,-0.016 0.008,0.656 0.056,1.416 0.08,2.024 -0.224,-0.048 -0.472,-0.072 -0.736,-0.072 -1.04,0 -1.632,0.544 -1.632,1.208002 0,0.704 0.584,1.144 1.648,1.144 1.072,0 1.376,-0.64 1.376,-1.296 v -0.144 c 0.408,0.224 0.8,0.536 1.192,0.904 z m 6.92,-4.944002 v 0.824 h -4.696 v -0.824 z m -4.696,1.32 h 5.288 v -1.824 h -5.888 v 2.216 c 0,1.288 -0.072,3.096002 -0.864,4.376002 0.152,0.064 0.408,0.208 0.52,0.304 0.824,-1.328 0.944,-3.312002 0.944,-4.680002 z m 3.008,4.360002 v -0.872 h 2.144 v -0.48 h -2.144 v -0.696002 l 1.584,-0.064 c 0.16,0.144 0.304,0.288 0.408,0.416 l 0.48,-0.328 c -0.352,-0.4 -1.096,-0.944 -1.688,-1.312 l -0.448,0.288 c 0.232,0.144 0.48,0.32 0.72,0.496 -0.816,0.032 -1.632,0.056 -2.36,0.08 0.192,-0.264 0.4,-0.576 0.584,-0.872 h 3.24 v -0.488 h -5.512 v 0.488 h 1.608 c -0.16,0.304 -0.36,0.624 -0.536,0.888 l -0.904,0.024 0.04,0.488 c 0.608,-0.024 1.368,-0.048 2.2,-0.088 v 0.680002 h -2.048 v 0.48 h 2.048 v 0.872 h -2.656 v 0.488 h 6 v -0.488 z m 10.408,-5.224002 h -2.896 v -1.368 h -0.592 v 1.368 h -2.896 v 5.952002 h 0.584 v -5.368002 h 2.304 c -0.048,1.048 -0.336,2.368 -2.096,3.304002 0.136,0.104 0.336,0.32 0.424,0.448 1.072,-0.632002 1.648,-1.376002 1.944,-2.144002 0.736,0.688 1.536,1.504 1.944,2.040002 l 0.488,-0.384 c -0.488,-0.592002 -1.464,-1.528002 -2.256,-2.224002 0.088,-0.36 0.128,-0.712 0.144,-1.04 h 2.32 v 4.560002 c 0,0.144 -0.048,0.192 -0.192,0.2 -0.168,0.008 -0.712,0.008 -1.272,-0.016 0.088,0.16 0.176,0.44 0.2,0.6 0.712,0 1.208,0 1.488,-0.104 0.272,-0.096 0.36,-0.288 0.36,-0.672 z m 3.032,-1.384 c -0.464,1.208 -1.24,2.4 -2.048,3.16 0.112,0.136 0.28,0.44 0.336,0.576 0.296,-0.296 0.6,-0.648 0.88,-1.04 v 4.664002 h 0.568 v -5.520002 c 0.312,-0.536 0.6,-1.104 0.824,-1.664 z m 1.128,3.92 v -1.184 h 1.424 v 0.824 c 0,0.12 0,0.24 -0.008,0.36 z m 3.48,-1.184 v 1.184 h -1.48 c 0.008,-0.12 0.008,-0.24 0.008,-0.36 v -0.824 z m 0.568,1.688 v -2.192 h -2.04 v -0.784 h 2.304 v -0.544 h -2.304 v -0.856 h -0.584 v 0.856 h -2.208 v 0.544 h 2.208 v 0.784 h -1.976 v 2.192 h 1.936 c -0.056,0.44 -0.176,0.856002 -0.432,1.232002 -0.424,-0.296 -0.768,-0.648002 -1.008,-1.064002 l -0.496,0.16 c 0.296,0.512002 0.688,0.944002 1.16,1.304002 -0.368,0.328 -0.904,0.608 -1.688,0.808 0.128,0.112 0.296,0.36 0.36,0.488 0.832,-0.248 1.408,-0.584 1.808,-0.976 0.816,0.488 1.816,0.8 2.944,0.968 0.08,-0.176 0.224,-0.408 0.352,-0.536 -1.136,-0.136 -2.144,-0.408 -2.944,-0.848 0.32,-0.464 0.464,-0.984002 0.528,-1.536002 z m 4.928,-0.104 v -1.328 h 2.152 v 1.328 z m -2.536,0 c 0.024,-0.296 0.032,-0.592 0.032,-0.856 v -0.472 h 1.912 v 1.328 z m 1.944,-3.168 v 1.28 h -1.912 v -1.28 z m 2.744,1.28 h -2.152 v -1.28 h 2.152 z m 0.584,-1.848 h -5.824 v 2.88 c 0,1.112 -0.08,2.520002 -0.96,3.512002 0.128,0.072 0.368,0.272 0.456,0.392 0.608,-0.68 0.88,-1.592 1,-2.480002 h 2 v 2.360002 h 0.592 v -2.360002 h 2.152 v 1.624002 c 0,0.152 -0.056,0.2 -0.216,0.208 -0.144,0 -0.688,0.008 -1.248,-0.016 0.08,0.16 0.176,0.416 0.2,0.576 0.752,0.008 1.216,0 1.488,-0.096 0.256,-0.104 0.36,-0.28 0.36,-0.664 z m 2.36,0.072 c 0,0.168 -0.032,0.376 -0.056,0.56 -0.096,0.648 -0.352,2.008 -0.352,3.176 0,1.072002 0.128,1.984002 0.288,2.544002 l 0.576,-0.04 -0.024,-0.28 c 0,-0.088 0.016,-0.24 0.04,-0.352 0.072,-0.376 0.36,-1.216002 0.56,-1.776002 l -0.344,-0.256 c -0.128,0.312 -0.304,0.776 -0.44,1.136002 -0.048,-0.384002 -0.064,-0.704002 -0.064,-1.088002 0,-0.888 0.232,-2.304 0.384,-3.032 0.032,-0.144 0.104,-0.4 0.152,-0.536 z m 1.952,3.84 c -0.072,0.336 -0.128,0.648 -0.128,0.936002 0,0.744 0.592,1.184 1.92,1.184 0.824,0 1.488,-0.064 1.976,-0.16 l -0.008,-0.672 c -0.64,0.144 -1.248,0.208 -1.96,0.208 -1.088,0 -1.328,-0.352 -1.328,-0.712 0,-0.216002 0.032,-0.440002 0.104,-0.728002 z m 0.272,-2.52 c 0.864,0.088 2.4,0.088 3.248,0 v -0.656 c -0.792,0.112 -2.392,0.144 -3.256,0 z m 7.08,-1.64 -0.096,0.024 h -1.96 v 6.960002 h 0.56 v -6.416002 h 1.176 c -0.192,0.544 -0.456,1.28 -0.712,1.856 0.624,0.616 0.8,1.144 0.8,1.584 0,0.24 -0.048,0.456 -0.184,0.544 -0.08,0.04 -0.168,0.064 -0.28,0.072 -0.144,0.008 -0.312,0.008 -0.52,-0.016 0.096,0.16 0.144,0.392002 0.152,0.544002 0.192,0.008 0.424,0.016 0.592,-0.008 0.176,-0.024 0.328,-0.072 0.448,-0.152 0.24,-0.16 0.336,-0.480002 0.328,-0.920002 0,-0.496 -0.144,-1.064 -0.792,-1.72 0.304,-0.624 0.632,-1.44 0.88,-2.112 z m 1.4,2.04 h 2.416 v 0.992 h -2.416 z m 2.416,-1.48 v 0.976 h -2.416 v -0.976 z m 0.464,3.192 c -0.264,0.296 -0.688,0.664 -1.064,0.96 -0.184,-0.352 -0.328,-0.744 -0.44,-1.152 h 1.632 v -3.528 h -3.584 v 6.096002 c -0.336,0.064 -0.64,0.12 -0.896,0.168 l 0.192,0.576 c 0.776,-0.176 1.84,-0.408 2.84,-0.64 l -0.04,-0.512 c -0.512,0.104 -1.032,0.208 -1.52,0.304 v -2.464002 h 0.864 c 0.384,1.560002 1.112,2.800002 2.288,3.400002 0.08,-0.152 0.256,-0.376 0.392,-0.488 -0.616,-0.28 -1.112,-0.744 -1.488,-1.344 0.416,-0.288 0.904,-0.680002 1.288,-1.048002 z m 3.008,-3.688 c -0.008,0.192 -0.032,0.432 -0.064,0.68 -0.096,0.64 -0.24,1.808 -0.24,2.56 0,0.512 0.04,0.96 0.08,1.256 l 0.624,-0.048 c -0.056,-0.392 -0.056,-0.664 -0.016,-0.968 0.096,-1.04 1.008,-2.472 1.992,-2.472 0.84,0 1.256,0.896 1.256,2.144 0,1.992002 -1.344,2.680002 -3.064,2.944002 l 0.376,0.576 c 1.968,-0.36 3.352,-1.328 3.352,-3.528002 0,-1.664 -0.76,-2.72 -1.816,-2.72 -1,0 -1.832,0.984 -2.144,1.8 0.048,-0.552 0.2,-1.616 0.368,-2.2 z m 9.984,5.384002 c 0,0.544 -0.384,0.68 -0.84,0.68 -0.784,0 -1.096,-0.272 -1.096,-0.64 0,-0.36 0.408,-0.648 1.16,-0.648 0.264,0 0.52,0.024 0.768,0.072 0,0.216 0.008,0.4 0.008,0.536 z m 2.888,0.272 c -0.448,-0.36 -1.256,-0.944002 -2.304,-1.232002 -0.016,-0.376 -0.04,-0.792 -0.056,-1.2 0.752,-0.032 1.456,-0.088 2.2,-0.184 l -0.008,-0.6 c -0.712,0.104 -1.44,0.176 -2.2,0.208 v -0.088 -1.048 c 0.744,-0.04 1.424,-0.104 2.048,-0.168 l -0.008,-0.584 c -0.696,0.104 -1.344,0.168 -2.032,0.192 0,-0.192 0,-0.344 0.008,-0.44 0.008,-0.232 0.016,-0.384 0.04,-0.528 h -0.68 c 0.016,0.112 0.024,0.344 0.024,0.472 v 0.52 c -0.136,0 -0.272,0 -0.408,0 -0.528,0 -1.376,-0.064 -1.856,-0.152 v 0.592 c 0.472,0.056 1.312,0.12 1.864,0.12 0.136,0 0.264,0 0.392,0 v 1.024 0.112 c -0.136,0 -0.28,0 -0.424,0 -0.52,0 -1.456,-0.056 -1.992,-0.152 v 0.608 c 0.568,0.064 1.448,0.112 1.992,0.112 0.152,0 0.296,0 0.44,0 0.008,0.328 0.024,0.704 0.04,1.056 -0.216,-0.032 -0.432,-0.048 -0.664,-0.048 -1.144,0 -1.84,0.488 -1.84,1.208002 0,0.768 0.632,1.176 1.768,1.176 1.032,0 1.4,-0.568 1.4,-1.112 0,-0.12 -0.008,-0.296 -0.016,-0.496 0.792,0.288 1.448,0.768 1.912,1.192 z m 4.944,-1.216002 c -0.44,0 -0.808,-0.288 -0.808,-0.784 0,-0.512 0.392,-0.832 0.8,-0.832 0.312,0 0.576,0.144 0.704,0.488 0.072,0.752 -0.232,1.128 -0.696,1.128 z m 1.224,-2.864 c 1.16,0 1.88,0.016 2.328,0.04 l 0.008,-0.6 c -0.384,0 -1.36,-0.008 -2.32,-0.008 h -0.12 c 0,-0.208 0.008,-0.392 0.008,-0.512 l 0.04,-0.496 h -0.728 c 0.016,0.096 0.04,0.328 0.048,0.496 0.008,0.112 0.016,0.296 0.016,0.52 -1.176,0.016 -2.664,0.064 -3.544,0.08 l 0.016,0.624 c 0.992,-0.072 2.336,-0.128 3.536,-0.136 0.008,0.272 0.008,0.552 0.008,0.784 -0.16,-0.056 -0.336,-0.088 -0.528,-0.088 -0.752,0 -1.4,0.6 -1.4,1.384 0,0.856 0.64,1.328002 1.312,1.328002 0.264,0 0.488,-0.064 0.68,-0.2 -0.328,0.704 -1.064,1.136 -2.104,1.376 l 0.552,0.536 c 1.84,-0.552 2.36,-1.744 2.36,-2.816002 0,-0.392 -0.088,-0.744 -0.256,-1.016 -0.008,-0.36 -0.016,-0.848 -0.016,-1.296 z" aria-label="帯は屋内使用に限ります" font-size="8" font-family="sans-serif" fill="#000000" />

</svg>
