<svg xmlns="http://www.w3.org/2000/svg" width="34.364mm" height="50.22mm">

  <path d="m27.292 97.178q0-2.2961 0.50728-4.3519 0.48058-2.0825 1.3483-3.7378 0.86771-1.6553 2.0692-2.8301t2.5898-1.6553l0.10679-0.05339q0.0801-0.0267 0.1335-0.10679 0.05338-0.0801 0.05338-0.1869 0-0.10679-0.0801-0.18689-0.0801-0.08009-0.18689-0.10679-0.56068-0.13349-1.0546-0.0801l-0.49393 0.05339q-0.58737 0.05339-1.1213 0.17355-0.53398 0.12014-1.0412 0.30703l0.08009-0.0267q-1.8956 0.66747-3.364 2.0825-1.4684 1.3883-2.4029 3.2706-0.93446 1.8823-1.2815 4.125-0.34709 2.2694 0.02669 4.6456l0.01334 0.10679t0.04003 0.29369v0.05339q0 0.08009-0.04003 0.13349-0.04003 0.05339-0.12015 0.05339-0.05338 0-0.10679-0.05339l-0.0801-0.08009q-0.16019-0.29369-0.25364-0.60072l-0.09345-0.30704q-0.26698-0.90776-0.40048-1.9223-0.13349-1.0146-0.13349-2.1626 0-1.2548 0.24029-2.5364 0.21359-1.2548 0.65412-2.4696 0.44053-1.2148 1.0546-2.3628 0.64078-1.1213 1.4417-2.0825 0.1335-0.16019 0.33374-0.36044l0.20024-0.20024q0.08009-0.05339 0.14684-0.10679l0.06675-0.05339q0.05338-0.05339 0.0801-0.12015 0.02669-0.06674 0.02669-0.12014 0-0.1335-0.06675-0.21358-0.06675-0.0801-0.22694-0.1068-0.24029-0.0801-0.56068-0.06674-0.32038 0.01335-0.29368 0.01335-1.2014 0.1068-2.3495 0.45388-1.1747 0.34708-2.2427 0.90776-1.0679 0.56067-2.0558 1.3349-0.96116 0.77426-1.7888 1.7354-0.82767 0.96116-1.4684 2.0558-0.64077 1.0947-1.0813 2.2961-0.44053 1.2014-0.65412 2.483-0.24029 1.2815-0.24029 2.5898 0 2.2694 0.66747 4.3786 0.64077 2.0825 1.8289 3.8179 1.1881 1.7354 2.8701 3.017 1.6553 1.3082 3.6844 1.9757l0.49393 0.13349t1.0279 0.1602l0.26699-0.0267t0.24029-0.26698v-0.0267q0-0.0534-0.01334-0.0934t-0.04003-0.0667q-0.02669-0.0534-0.1068-0.10679l-0.08009-0.0534q-0.05338-0.0534-0.14685-0.12015-0.09344-0.0667-0.20024-0.14684l-0.02669-0.0267q-1.4417-0.96116-2.5898-2.2427-1.1213-1.2815-1.9223-2.79-0.80097-1.5085-1.2014-3.1905-0.42718-1.682-0.42718-3.4442 0-0.32038 0.01334-0.62742 0.01335-0.30704 0.04003-0.62742l0.01334-0.17354t0.04003-0.28034l0.02669-0.0801t0.13349-0.0801l0.0801 0.01335t0.10679 0.14685l0.02669 0.13349t0.05338 0.37378q0.34709 2.75 1.5752 5.1529 1.2548 2.4029 3.1505 4.2184 1.8956 1.8155 4.3252 2.9636 2.4296 1.148 5.1796 1.3616l0.50728 0.0267t0.96116-0.1068q0.16019-0.0267 0.24029-0.12014 0.08009-0.0935 0.10679-0.20025 0-0.10679-0.05338-0.18688-0.05338-0.0801-0.16019-0.10679l-0.1068-0.0267q-1.415-0.48064-2.5898-1.6554-1.2014-1.148-2.0692-2.8034-0.86771-1.6553-1.3483-3.7378-0.50728-2.0825-0.50728-4.3786zm10.172 9.7718h-0.0801q-0.82766-0.13348-1.4284-0.58737l-0.60072-0.45387q-0.72087-0.69417-1.1614-1.5485l-0.44053-0.85435q-0.98786-2.2427-1.108-4.2451l-0.12015-2.0024v-0.21358l0.1335-2.0024t1.0946-4.2451l0.44053-0.85437t1.1614-1.5485l0.60072-0.45388t1.4284-0.58738h0.0801q0.1068-0.05339 0.16019-0.12014 0.0534-0.06674 0.0534-0.14684 0-0.0801-0.04005-0.1335-0.04005-0.05339-0.12014-0.10679-0.0534 0-0.06675-0.01335t-0.06675-0.04005q-1.682-0.45388-3.017 0.30704l-1.3349 0.76091q-1.4684 1.068-2.2026 2.5898l-0.73422 1.5218q-0.66747 1.7621-0.74757 3.4041l-0.0801 1.642v0.26698l0.0801 1.642t0.74757 3.4041l0.73422 1.5218t2.2026 2.5898l1.3349 0.74757t3.017 0.32037q0.0534-0.0267 0.06675-0.04 0.01335-0.0134 0.06675-0.0134 0.0801-0.0534 0.12014-0.10679 0.04005-0.0534 0.04005-0.1335t-0.0534-0.14684q-0.0534-0.0667-0.16019-0.12014zm2.8568-2.5097-0.0267-0.0134t-0.0534-0.04q-0.1068-0.0267-0.21359-0.0667l-0.1068-0.04q-1.3082-0.53397-2.0692-2.523-0.76092-1.9891-0.76092-4.5521v-0.1068q0-2.5631 0.76092-4.5521 0.76092-1.9891 2.0692-2.523l0.1068-0.04004t0.21359-0.06674q0.0267 0 0.0534-0.01335t0.0267-0.04004q0.0801-0.0267 0.12014-0.08009 0.04005-0.05339 0.04005-0.1335 0-0.05339-0.0267-0.10679-0.0267-0.05339-0.0801-0.0801-0.0267 0-0.04005-0.01335l-0.01335-0.01335h-0.0267q-0.29368-0.16018-0.72086-0.13349l-0.42718 0.0267q-1.0146 0.10679-1.8689 0.77427-0.88106 0.64076-1.5218 1.6687-0.64077 1.0279-1.0413 2.3895-0.37378 1.3349-0.37378 2.8835v0.1335q0 1.5485 0.37378 2.8835 0.40048 1.3616 1.0413 2.3895 0.64077 1.0279 1.5218 1.6687 0.85436 0.64076 1.8689 0.77426l0.42718 0.0267t0.72087-0.1335l0.0267-0.0134t0.0534-0.0134q0.0534-0.0534 0.0801-0.0934t0.0267-0.0935v-0.0267l-0.04005-0.04t-0.12014-0.0667z" fill="#000000" />

  <path d="m60.769 45.607c0.32 0 0.608-0.232 0.608-0.6s-0.288-0.6-0.608-0.6-0.6 0.232-0.6 0.6 0.28 0.6 0.6 0.6zm0 3.92c0.32 0 0.608-0.24 0.608-0.6 0-0.368-0.288-0.608-0.608-0.608s-0.6 0.24-0.6 0.608c0 0.36 0.28 0.6 0.6 0.6zm-9.552-4.248h-1.2v-1.216h1.2zm0.552-1.712h-2.28v2.208h2.28zm-1.576 4c0.056-0.232 0.112-0.472 0.16-0.704h1.76v-0.528h-2.992v0.528h0.688c-0.112 0.552-0.272 1.184-0.4 1.616l0.528 0.096c0.04-0.144 0.088-0.32 0.136-0.504h1.088c-0.096 1.272-0.2 1.784-0.352 1.928-0.064 0.072-0.144 0.088-0.256 0.08-0.128 0-0.432 0-0.768-0.032 0.08 0.136 0.144 0.368 0.152 0.512 0.336 0.024 0.664 0.024 0.832 8e-3 0.216-0.016 0.36-0.064 0.488-0.208 0.216-0.24 0.336-0.888 0.464-2.552 8e-3 -0.072 0.016-0.24 0.016-0.24zm2.68-2.232h2.984c-0.048 0.32-0.112 0.648-0.16 0.88l0.448 0.112c0.104-0.36 0.232-0.936 0.328-1.416l-0.376-0.096-0.088 0.024h-1.544v-0.536h1.608v-0.48h-1.608v-0.56h-0.568v1.576h-1.568v2.04c0 1.024-0.072 2.408-0.76 3.408 0.128 0.056 0.352 0.216 0.448 0.328 0.736-1.064 0.856-2.632 0.856-3.736zm0.64 2.448c-0.056 1.168-0.224 1.944-1.096 2.384 0.128 0.096 0.28 0.296 0.344 0.432 0.984-0.536 1.208-1.456 1.272-2.816zm1.192-0.784c-0.216 0-0.248-0.032-0.248-0.192v-0.368l1.008-0.104-0.056-0.416-0.952 0.096v-0.632h-0.536v0.688l-0.872 0.088 0.056 0.416 0.816-0.08v0.32c0 0.504 0.144 0.624 0.72 0.624h0.872c0.432 0 0.576-0.152 0.624-0.768-0.144-0.04-0.352-0.104-0.456-0.176-0.016 0.448-0.056 0.504-0.24 0.504zm0.728 2.912c-0.08 0-0.136-0.016-0.184-0.04-0.04-0.024-0.056-0.08-0.056-0.136v-1.952h-0.52v1.944c0 0.36 0.032 0.48 0.168 0.592 0.112 0.096 0.304 0.128 0.472 0.128h0.448c0.152 0 0.336-0.032 0.424-0.08 0.12-0.072 0.208-0.16 0.256-0.304 0.04-0.144 0.072-0.536 0.08-0.912-0.144-0.048-0.344-0.152-0.44-0.24 0 0.36-8e-3 0.664-0.032 0.792-0.016 0.08-0.064 0.144-0.112 0.168-0.04 0.024-0.136 0.04-0.224 0.04zm-7.544-6.592h-0.568v3.544c0 0.112-0.032 0.144-0.152 0.144-0.12 0.016-0.52 0.016-0.976 0 0.088 0.16 0.176 0.384 0.2 0.544 0.568 0 0.952-8e-3 1.192-0.096 0.24-0.096 0.304-0.248 0.304-0.576zm-1.496 0.4h-0.552v2.664h0.552zm-3.496 1.448v-1.048h0.984v1.096h-0.984zm0.984 0.576v1.712h0.56v-1.712h0.904v-0.528h-0.904v-1.096h0.744v-0.528h-3.584v0.528h0.744v1.096h-1.008v0.528h0.968c-0.096 0.536-0.344 1.072-1.04 1.496 0.112 0.088 0.312 0.304 0.392 0.416 0.808-0.512 1.104-1.224 1.2-1.912zm1.232 4v-1.008h2.416v-0.544h-2.416v-0.896h-0.6v0.896h-2.512v0.544h2.512v1.008h-3.336v0.56h7.184v-0.56z" aria-label="型號：" font-family="sans-serif" font-size="8" fill="#000000" />

  <text x="78.593872" y="49.851475" fill="#000000" font-family="sans-serif" font-size="8px" text-align="center" text-anchor="middle">RM110</text>

  <path d="m60.769 12.148c0.32 0 0.608-0.232 0.608-0.6s-0.288-0.6-0.608-0.6-0.6 0.232-0.6 0.6 0.28 0.6 0.6 0.6zm0 3.92c0.32 0 0.608-0.24 0.608-0.6 0-0.368-0.288-0.608-0.608-0.608s-0.6 0.24-0.6 0.608c0 0.36 0.28 0.6 0.6 0.6zm-8.856-1.944c-0.152-0.192-0.808-0.88-1.032-1.08v-0.392h0.976v-0.48c0.136 0.072 0.304 0.16 0.384 0.216 0.288-0.4 0.56-0.992 0.76-1.608 0.984-0.088 2.096-0.232 2.888-0.432l-0.448-0.416c-0.576 0.144-1.536 0.296-2.44 0.392l-0.448-0.096c-0.176 0.696-0.456 1.392-0.824 1.872h-0.848v-1.376c0.36-0.096 0.704-0.2 0.984-0.328l-0.448-0.416c-0.52 0.256-1.472 0.48-2.304 0.624 0.072 0.12 0.152 0.312 0.176 0.44 0.328-0.048 0.688-0.112 1.032-0.184v1.24h-1.168v0.552h1.072c-0.256 0.904-0.728 1.952-1.168 2.52 0.104 0.144 0.248 0.376 0.312 0.544 0.336-0.488 0.68-1.256 0.952-2.04v3.448h0.56v-3.504c0.256 0.32 0.56 0.736 0.68 0.952zm3.2-3.336c0.328 0.464 0.664 1.12 0.808 1.536l0.512-0.232c-0.152-0.416-0.496-1.032-0.832-1.496zm-0.624 1.128c-0.048-0.304-0.2-0.76-0.376-1.096l-0.496 0.128c0.168 0.352 0.312 0.816 0.344 1.112zm-0.112 3.136v-0.768h1.128v0.768zm-1.592-0.768h1.048v0.768h-1.048zm1.048-1.2v0.752h-1.048v-0.752zm1.672 0v0.752h-1.128v-0.752zm0.992 1.968h-0.44v-2.448h-1.68v-0.52h-0.544v0.52h-1.592v2.448h-0.568v0.496h0.568v1.552h0.544v-1.552h2.72v0.92c0 0.096-0.04 0.12-0.144 0.128-0.096 0-0.44 8e-3 -0.816-8e-3 0.08 0.136 0.176 0.368 0.208 0.52 0.504 0 0.824-8e-3 1.024-0.096 0.216-0.088 0.28-0.256 0.28-0.544v-0.92h0.44zm-12.536 1.192v-1.968h3.28v1.968zm1.984-5.104c-0.344 0.696-0.848 1.328-1.44 1.872-0.368-0.4-0.976-0.912-1.512-1.288 0.208-0.184 0.392-0.384 0.568-0.584zm1.896 2.592h-3.272c0.928-0.784 1.712-1.768 2.184-2.952l-0.392-0.208-0.112 0.032h-2.256c0.168-0.232 0.32-0.464 0.456-0.688l-0.664-0.136c-0.464 0.864-1.376 1.888-2.688 2.6 0.136 0.104 0.336 0.32 0.416 0.456 0.384-0.224 0.728-0.472 1.048-0.728 0.528 0.392 1.112 0.904 1.464 1.312-0.904 0.712-1.952 1.24-2.968 1.536 0.128 0.112 0.28 0.36 0.352 0.52 0.664-0.216 1.328-0.52 1.968-0.896v2.528h0.584v-0.32h3.28v0.336h0.6zm-9.472-1.504h-3.176v-1.512h3.176zm0.6-2.08h-4.352v2.648h4.352zm-3.272 4.064v1.896h-1.672v-1.896zm-2.24 2.904h0.568v-0.432h1.672v0.36h0.584v-3.408h-2.824zm4.272-1.008v-1.896h1.816v1.896zm-0.576-2.472v3.48h0.576v-0.432h1.816v0.376h0.584v-3.424zm-7.416 1.848h1.912v-0.472h-1.912v-0.8h2.104v-0.488h-2.104v-0.64h-0.584v0.64h-1.248c0.088-0.176 0.168-0.368 0.232-0.552l-0.528-0.112c-0.216 0.592-0.584 1.184-1 1.584 0.128 0.064 0.352 0.216 0.448 0.304 0.2-0.2 0.392-0.456 0.568-0.736h1.528v0.8h-1.808v0.472h1.808v0.96h-2.528v0.504h5.664v-0.504h-2.552zm-2.768-3.072c0.664-0.136 1.368-0.328 2.024-0.56 0.56 0.192 1.072 0.392 1.472 0.56zm3.08-1.456c-0.288 0.168-0.64 0.328-1.032 0.464-0.544-0.168-1.104-0.336-1.616-0.464zm0.632 1.456 0.296-0.272c-0.36-0.16-0.84-0.336-1.368-0.52 0.416-0.176 0.8-0.376 1.104-0.592l-0.128-0.072h1.376v-0.488h-2.912v-0.656h-0.584v0.656h-2.792v0.488h1.52l-0.336 0.272c0.472 0.112 0.984 0.256 1.488 0.416-0.616 0.184-1.272 0.328-1.848 0.432 0.072 0.08 0.152 0.232 0.208 0.336h-0.912v1.272c0 0.912-0.088 2.184-0.736 3.112 0.128 0.072 0.376 0.264 0.464 0.376 0.704-1 0.84-2.472 0.84-3.48v-0.784h5.992v-0.496z" aria-label="產品名稱：" font-family="sans-serif" font-size="8" fill="#000000" />

  <path d="m92.106 14.892-0.872 0.288v-1.984h0.8v-0.552h-0.8v-1.736h0.92v-0.56h-2.48v0.56h0.992v1.736h-0.904v0.552h0.904v2.16c-0.408 0.136-0.776 0.248-1.072 0.336l0.136 0.6c0.712-0.232 1.624-0.544 2.48-0.832zm0.984-2.696h1.216v1.016h-1.216zm0-1.504h1.216v1.008h-1.216zm2.952 1.008h-1.224v-1.008h1.224zm0 1.512h-1.224v-1.016h1.224zm-1.176 3.096v-1.096h1.864v-0.544h-1.864v-0.936h1.744v-3.56h-4.064v3.56h1.72v0.936h-1.816v0.544h1.816v1.096h-2.432v0.544h5.152v-0.544zm-12.168-2.176h1.496v1.056c-0.528 0.112-1.032 0.224-1.496 0.32zm1.496-3.392v1.168h-1.496v-1.168zm0 2.856h-1.496v-1.152h1.496zm1 1.376-0.44 0.096v-4.872h-2.6v5.424l-0.568 0.112 0.104 0.6c0.952-0.216 2.296-0.528 3.544-0.824zm1.696-3.36c0.024-0.584 0.024-1.184 0.024-1.8h-0.576c0 0.616 0 1.216-0.024 1.8h-1.296v0.568h1.272c-0.112 1.912-0.512 3.56-2.032 4.512 0.152 0.088 0.344 0.296 0.432 0.44 1.616-1.072 2.056-2.872 2.176-4.952h1.248c-0.072 2.912-0.16 3.968-0.36 4.208-0.072 0.104-0.16 0.128-0.296 0.12-0.168 0-0.584 0-1.04-0.032 0.104 0.152 0.16 0.392 0.176 0.568 0.424 0.016 0.856 0.032 1.096 8e-3 0.256-0.032 0.424-0.096 0.576-0.304 0.264-0.352 0.344-1.488 0.424-4.84 0-0.072 8e-3 -0.296 8e-3 -0.296zm-12.52 2.48v-0.584h1.008v0.584zm0-1.552h1.008v0.576h-1.008zm2.592 0v0.576h-1.048v-0.576zm0 1.552h-1.048v-0.584h1.048zm2.104-2.432c0.016-0.56 0.016-1.152 0.016-1.752h-0.56c0 0.608 0 1.192-0.016 1.752h-0.952v0.56h0.936c-0.072 1.496-0.288 2.784-0.976 3.728v-0.032c-0.536 0.064-1.08 0.12-1.6 0.168v-0.632h1.568v-0.456h-1.568v-0.488h1.552v-2.376h-1.552v-0.504h1.696v-0.464h-1.696v-0.584c0.584-0.064 1.128-0.136 1.56-0.232l-0.296-0.456c-0.824 0.184-2.264 0.328-3.448 0.392 0.064 0.12 0.12 0.312 0.144 0.44 0.472-0.016 0.992-0.048 1.504-0.088v0.528h-1.728v0.464h1.728v0.504h-1.496v2.376h1.496v0.488h-1.512v0.456h1.512v0.688c-0.656 0.064-1.256 0.12-1.736 0.16l0.088 0.52c0.896-0.096 2.136-0.232 3.344-0.376-0.104 0.096-0.216 0.192-0.344 0.28 0.144 0.096 0.352 0.296 0.44 0.424 1.408-1.056 1.776-2.8 1.872-4.928h1.144c-0.08 2.904-0.176 3.96-0.36 4.192-0.08 0.104-0.152 0.128-0.288 0.128-0.152 0-0.504-8e-3 -0.888-0.04 0.088 0.152 0.152 0.4 0.168 0.56 0.368 0.024 0.744 0.032 0.968 0 0.24-0.024 0.4-0.088 0.536-0.296 0.272-0.336 0.344-1.448 0.432-4.8 0-0.08 8e-3 -0.304 8e-3 -0.304zm-6.4-1.368h-3.904v0.56h3.904zm-5.24-0.488c-0.4 0.568-1.168 1.288-1.832 1.736 0.104 0.112 0.264 0.344 0.352 0.472 0.712-0.504 1.528-1.28 2.048-1.984zm0.328 1.704c-0.552 0.904-1.416 1.824-2.24 2.408 0.12 0.12 0.328 0.376 0.416 0.496 0.296-0.232 0.6-0.52 0.904-0.832v3.552h0.592v-4.208c0.328-0.392 0.632-0.8 0.88-1.208zm5.144 0.968h-4.48v0.568h2.672v3.296c0 0.136-0.048 0.168-0.2 0.176s-0.68 8e-3 -1.248-8e-3c0.088 0.168 0.168 0.416 0.192 0.576 0.784 0 1.232 0 1.504-0.088 0.264-0.096 0.352-0.28 0.352-0.648v-3.304h1.208z" aria-label="行動助理 :" font-family="sans-serif" font-size="8" fill="#000000" />

  <path d="m60.769 56.77c0.32 0 0.608-0.232 0.608-0.6s-0.288-0.6-0.608-0.6-0.6 0.232-0.6 0.6 0.28 0.6 0.6 0.6zm0 3.92c0.32 0 0.608-0.24 0.608-0.6 0-0.368-0.288-0.608-0.608-0.608s-0.6 0.24-0.6 0.608c0 0.36 0.28 0.6 0.6 0.6zm-7.904-1.872c0.456-0.248 0.896-0.552 1.304-0.904 0.384 0.344 0.832 0.656 1.344 0.904zm0.152 2.048v-1.536h2.232v1.536zm0.344-5.064h1.744c-0.232 0.504-0.56 0.96-0.944 1.36-0.384-0.392-0.68-0.808-0.896-1.216zm2.12-0.544-0.104 0.024h-1.712c0.12-0.232 0.232-0.464 0.328-0.704l-0.576-0.16c-0.312 0.816-0.824 1.592-1.416 2.16v-0.44h-1.032v-1.712h-0.568v1.712h-1.192v0.552h1.128c-0.256 1.096-0.784 2.344-1.312 3.016 0.104 0.136 0.248 0.368 0.312 0.528 0.392-0.528 0.776-1.392 1.064-2.288v3.776h0.568v-3.992c0.248 0.344 0.528 0.768 0.656 1l0.352-0.464c-0.152-0.192-0.776-0.96-1.008-1.216v-0.36h0.912c-0.064 0.056-0.136 0.112-0.2 0.168 0.136 0.088 0.368 0.288 0.472 0.4 0.272-0.24 0.536-0.528 0.784-0.848 0.216 0.376 0.496 0.76 0.832 1.12-0.672 0.576-1.464 1.008-2.264 1.264 0.12 0.112 0.272 0.328 0.336 0.48 0.216-0.08 0.424-0.16 0.632-0.264v2.728h0.544v-0.352h2.232v0.32h0.56v-2.752c0.12 0.048 0.248 0.096 0.376 0.144 0.08-0.152 0.248-0.384 0.368-0.496-0.784-0.24-1.448-0.616-1.992-1.072 0.552-0.576 1.008-1.272 1.288-2.096zm-11.16 4.84c-0.2-0.232-1.032-1.168-1.368-1.504 0.016-0.152 0.032-0.312 0.04-0.464h1.296v-0.536h-1.272v-0.336-0.976h1.128v-0.528h-1.128v-1.24h-0.552v1.24h-1.152v0.528h1.152v0.976 0.336h-1.32v0.536h1.296c-0.064 1.088-0.328 2.32-1.344 3.08 0.136 0.096 0.328 0.304 0.4 0.432 0.8-0.656 1.184-1.536 1.368-2.44 0.368 0.432 0.848 1.032 1.048 1.336zm0.816-2.272h2.28v0.8h-2.28zm0-1.272h2.28v0.784h-2.28zm0-1.272h2.28v0.776h-2.28zm2.104 5.784c-0.168 0-0.2-0.024-0.2-0.208v-1.696h0.952v-4.424h-3.408v4.424h0.64c-0.128 0.984-0.472 1.72-1.688 2.112 0.12 0.104 0.28 0.32 0.336 0.448 1.36-0.48 1.768-1.352 1.912-2.56h0.712v1.696c0 0.56 0.112 0.736 0.664 0.736h0.648c0.472 0 0.616-0.272 0.664-1.36-0.152-0.04-0.384-0.128-0.496-0.224-0.024 0.936-0.056 1.056-0.232 1.056zm-12.632-6.152v0.592h1.968c0.016 0.304 0.048 0.656 0.104 1.024l-0.352-0.056c-0.488 2.24-1.472 3.848-3.24 4.768 0.16 0.104 0.424 0.352 0.536 0.472 1.592-0.936 2.6-2.392 3.192-4.464 0.36 1.512 1.208 3.264 3.176 4.456 0.104-0.144 0.344-0.4 0.48-0.496-3.136-1.864-3.32-4.88-3.32-6.296zm-8.832 3.088h0.712v0.728h-0.712zm0-1.144h0.712v0.72h-0.712zm1.832 0.72h-0.72v-0.72h0.72zm0 1.152h-0.72v-0.728h0.72zm-0.656 0.448h1.112v-2.768h-1.112v-0.608h1.28v-0.512h-1.28v-0.864h-0.528v0.864h-1.216v0.512h1.216v0.608h-1.096v2.768h1.096v0.64h-1.312v0.528h1.312v1.392h0.528v-1.392h1.256v-0.528h-1.256zm1.92 0.536v-0.664h0.904v0.664zm0.904-1.704v0.616h-0.904v-0.616zm0.44-0.448h-1.784v4.144h0.44v-1.544h0.904v1.056c0 0.056-0.016 0.08-0.072 0.08h-0.4c0.048 0.12 0.112 0.312 0.12 0.424 0.296 0 0.488 0 0.624-0.08 0.128-0.08 0.168-0.208 0.168-0.424zm1.192-1.096h-2.2v0.48h2.2zm-0.304 1.264h-0.44v2.8h0.44zm0.632 3.416c0 0.088-0.032 0.104-0.12 0.112s-0.384 8e-3 -0.712 0c0.064 0.128 0.128 0.328 0.152 0.448 0.464 0 0.744-8e-3 0.936-0.072 0.176-0.088 0.232-0.224 0.232-0.48v-3.72h-0.488zm-1.712-6.688c-0.376 0.752-1.136 1.624-1.944 2.096 0.096 0.136 0.232 0.344 0.296 0.488 0.808-0.512 1.536-1.328 1.936-2.032 0.448 0.712 1.224 1.504 1.96 1.968 0.088-0.16 0.216-0.384 0.32-0.512-0.744-0.408-1.544-1.2-2.04-2.008zm-11.992 1.448h5.448v1.168h0.608v-1.728h-3.024v-0.912h-0.616v0.912h-3v1.728h0.584zm3.032 3.4h2.368v-0.552h-2.368v-1.328h2.04v-0.56h-4.632v0.56h1.984v3.352c-0.656-0.248-1.168-0.704-1.472-1.544 0.08-0.336 0.144-0.688 0.192-1.064l-0.608-0.056c-0.176 1.432-0.608 2.568-1.496 3.256 0.144 0.088 0.392 0.296 0.488 0.4 0.52-0.456 0.912-1.048 1.192-1.784 0.728 1.352 1.92 1.64 3.576 1.64h1.856c0.024-0.176 0.128-0.456 0.224-0.6-0.384 8e-3 -1.76 8e-3 -2.048 8e-3 -0.464 0-0.904-0.024-1.296-0.096zm-5.52-1.984h-2.088v-0.768h2.088zm0 1.2h-2.088v-0.768h2.088zm0 1.224h-2.088v-0.776h2.088zm-2.624-3.664v4.136h3.184v-4.136h-1.576c0.08-0.232 0.16-0.504 0.24-0.76h1.544v-0.52h-3.696v0.52h1.512c-0.04 0.248-0.104 0.52-0.168 0.76zm-3.176-0.448h2.264v0.664h0.512v-1.144h-1.36v-0.712h-0.552v0.712h-1.36v1.144h0.496zm0.392 3.496c0.328-0.216 0.656-0.472 0.944-0.768 0.344 0.272 0.672 0.536 0.928 0.768zm1.4-2.272c-0.136 0.296-0.312 0.568-0.52 0.824-0.264-0.184-0.52-0.368-0.768-0.536 0.08-0.088 0.152-0.192 0.224-0.288zm-8e-3 3.88h-1.328v-1.136h1.328zm0.528 0.48v-2.048c0.072 0.072 0.144 0.136 0.2 0.192l0.352-0.416c-0.28-0.272-0.72-0.616-1.192-0.968 0.336-0.416 0.608-0.888 0.792-1.424l-0.344-0.152-0.088 0.024h-1.032c0.088-0.152 0.168-0.304 0.24-0.464l-0.504-0.128c-0.296 0.704-0.848 1.36-1.448 1.784 0.112 0.08 0.312 0.256 0.4 0.352 0.168-0.136 0.336-0.288 0.504-0.456 0.232 0.168 0.488 0.352 0.744 0.536-0.496 0.488-1.096 0.872-1.688 1.096 0.104 0.104 0.248 0.296 0.32 0.424 0.128-0.056 0.248-0.112 0.376-0.184v2.208h0.512v-0.376zm1.528-0.84c-0.304 0.344-0.96 0.736-1.536 0.944 0.128 0.112 0.296 0.288 0.392 0.392 0.576-0.224 1.256-0.632 1.656-1.04zm1.16 0.32c0.472 0.304 1.056 0.76 1.344 1.048l0.456-0.312c-0.296-0.296-0.888-0.736-1.352-1.024z" aria-label="額定輸入規格：" font-family="sans-serif" font-size="8" fill="#000000" />

  <text x="70.218483" y="61.006081" fill="#000000" font-family="sans-serif" font-size="8px" text-align="center" text-anchor="middle">5V</text>

  <path d="m 86.051586,59.031376 q 0.264,0 0.264,0.293334 0,0.293333 -0.264,0.293333 H 84.49692 q -0.278667,0 -0.278667,-0.293333 0,-0.293334 0.278667,-0.293334 z m 0,-2.141333 q 0.264,0 0.264,0.293333 0,0.293334 -0.264,0.293334 h -7.524 q -0.278666,0 -0.278666,-0.293334 0,-0.293333 0.278666,-0.293333 z m -2.977333,2.141333 q 0.264,0 0.264,0.293334 0,0.293333 -0.264,0.293333 H 81.50492 q -0.278667,0 -0.278667,-0.293333 0,-0.293334 0.278667,-0.293334 z m -2.992,0 q 0.264,0 0.264,0.293334 0,0.293333 -0.264,0.293333 h -1.554667 q -0.278666,0 -0.278666,-0.293333 0,-0.293334 0.278666,-0.293334 z" fill="#000000" aria-label="⎓" />

  <text x="97.671989" y="61.058815" fill="#000000" font-family="sans-serif" font-size="8px" text-align="center" text-anchor="middle">2.8A</text>

  <text x="64.78952" y="38.767162" fill="#000000" font-family="sans-serif" font-size="8px" text-align="center" text-anchor="middle">reMarkable 2</text>

  <path d="m 69.88163,21.838099 h 0.789062 V 27.67013 H 69.88163 Z m -2.359375,0 h 0.789062 v 5.832031 h -0.789062 z m -1.289141,0.160031 c -0.16,-0.264 -0.504,-0.664 -0.792,-0.944 l -0.416,0.216 c 0.296,0.296 0.632,0.712 0.768,0.984 z m -3.496,3.896 c -0.256,0.144 -0.496,0.272 -0.688,0.368 l 0.256,0.472 c 0.592,-0.336 1.344,-0.784 2.048,-1.216 l -0.168,-0.44 c -0.304,0.176 -0.608,0.352 -0.904,0.512 v -2.72 h 0.92 c 0.08,1.104 0.208,2.072 0.424,2.808 -0.376,0.48 -0.8,0.88 -1.272,1.144 0.12,0.104 0.288,0.28 0.368,0.416 0.4,-0.256 0.776,-0.592 1.104,-0.992 0.232,0.544 0.544,0.856 0.928,0.856 0.488,0 0.664,-0.336 0.752,-1.44 -0.136,-0.064 -0.32,-0.168 -0.432,-0.288 -0.024,0.84 -0.096,1.184 -0.264,1.184 -0.232,0 -0.44,-0.296 -0.608,-0.808 0.432,-0.648 0.776,-1.416 1.016,-2.248 l -0.464,-0.128 c -0.176,0.608 -0.424,1.184 -0.728,1.704 -0.128,-0.592 -0.216,-1.344 -0.272,-2.208 h 1.64 v -0.512 h -1.672 c -0.016,-0.44 -0.024,-0.896 -0.024,-1.376 h -0.568 c 0.008,0.472 0.024,0.936 0.04,1.376 h -1.432 z m -1.432,-0.232 h 1.144 v -0.528 h -1.144 v -1.112 h 1.232 v -0.528 h -1.344 v -1.008 h 1.2 v -0.528 h -1.2 v -0.976 h -0.552 v 0.976 h -1.224 v 0.528 h 1.224 v 1.008 h -1.528 v 0.528 h 1.648 v 2.84 c -0.312,-0.288 -0.544,-0.688 -0.712,-1.248 0.024,-0.352 0.024,-0.696 0.024,-1.016 l -0.504,-0.032 c 0.016,1.064 -0.056,2.392 -0.632,3.336 0.128,0.056 0.32,0.232 0.408,0.352 0.304,-0.488 0.48,-1.056 0.592,-1.648 0.608,1.192 1.6,1.472 3.352,1.472 h 2.928 c 0.04,-0.176 0.152,-0.448 0.24,-0.592 -0.464,0.016 -2.8,0.016 -3.168,0.016 -0.832,0 -1.48,-0.064 -1.984,-0.288 z m -8.671985,-1.168 h 4.264 v 0.768 h -4.264 z m 0,-1.224 h 4.264 v 0.752 h -4.264 z m 5.648,3.16 h -3.272 v -0.672 h 2.496 v -2.984 h -2.568 v -0.64 h 3.048 v -0.52 h -3.048 v -0.632 h -0.6 v 1.792 h -2.288 v 2.984 h 2.36 v 0.672 h -3.2 v 0.552 h 3.2 v 1.296 h 0.6 v -1.296 h 3.272 z" aria-label="卓越II" font-family="sans-serif" font-size="8" fill="#000000" />

  <text x="78.947723" y="99.81929" fill="#000000" font-family="sans-serif" font-size="8px" text-align="center" text-anchor="middle">CCAK21LP0210T4</text>

  <path d="m 62.399,115.5 q 2.7119,0 5.1525,0.87382 2.4407,0.90395 4.4143,2.4557 1.9736,1.5518 3.3597,3.7213 1.4162,2.1394 2.049,4.6704 h -3.8569 q -0.60264,-1.7175 -1.6572,-3.194 -1.0847,-1.4764 -2.5311,-2.5461 -1.4463,-1.0697 -3.194,-1.6723 -1.7778,-0.60262 -3.7363,-0.60262 -1.9586,0 -3.7363,0.60262 -1.7476,0.60264 -3.194,1.6723 -1.4463,1.0697 -2.5311,2.5461 -1.0546,1.4765 -1.6572,3.194 h -3.8569 q 0.63277,-2.5311 2.049,-4.6704 1.3861,-2.1695 3.3597,-3.7213 1.9736,-1.5518 4.4143,-2.4557 Q 59.6872,115.5 62.399,115.5 Z m 14.975,19.134 q -0.63278,2.5612 -2.049,4.7006 -1.3861,2.1394 -3.3597,3.7062 -1.9736,1.5668 -4.4143,2.4407 -2.4407,0.87381 -5.1525,0.87381 -2.7119,0 -5.1525,-0.87381 -2.4407,-0.87383 -4.4143,-2.4407 -1.9736,-1.5668 -3.3597,-3.7062 -1.4162,-2.1394 -2.049,-4.7006 h 3.8569 q 0.60264,1.7476 1.6572,3.2241 1.0847,1.4463 2.5311,2.516 1.4463,1.0697 3.194,1.6723 1.7778,0.60263 3.7363,0.60263 1.9586,0 3.7363,-0.60263 1.7476,-0.60264 3.194,-1.6723 1.4463,-1.0697 2.5311,-2.516 1.0546,-1.4764 1.6572,-3.2241 z m -30.403,-2.3202 v -2.7721 h 3.7062 v 2.7721 z m 0.30132,-4.1582 h 23.774 l -4.6403,-4.1582 11.42,6.9303 -11.42,6.9604 4.6403,-4.1883 h -23.774 l 19.134,-2.7721 z" style="fill:#000000" />

  <text x="60.896942" y="159.71751" fill="#000000" font-family="sans-serif" font-size="8px" text-align="center" text-anchor="middle">R38795</text>

  <text x="60.769989" y="168.26726" fill="#000000" font-family="sans-serif" font-size="8px" text-align="center" text-anchor="middle">RoHS</text>

  <path d="m 77.815,172.44 c -0.184,-0.184 -0.552,-0.4 -0.864,-0.544 l -0.28,0.296 c 0.312,0.136 0.68,0.384 0.856,0.56 z m -2.136,3.232 c -0.896,0.16 -1.784,0.32 -2.392,0.416 l 0.08,0.448 c 0.656,-0.12 1.504,-0.288 2.336,-0.448 z m -0.696,-0.704 h -0.92 v -0.8 h 0.92 z m -1.336,-1.176 v 1.552 h 1.768 v -1.552 z m 3.552,-0.136 c -0.136,0.544 -0.336,1.04 -0.592,1.472 -0.136,-0.512 -0.232,-1.152 -0.296,-1.84 h 1.704 v -0.448 h -1.744 c -0.016,-0.28 -0.032,-0.56 -0.048,-0.848 h -0.512 c 0.016,0.288 0.04,0.568 0.064,0.848 h -2.408 v 0.448 h 2.448 c 0.088,0.904 0.224,1.728 0.44,2.368 -0.336,0.416 -0.736,0.768 -1.208,1.04 0.104,0.088 0.28,0.28 0.352,0.376 0.392,-0.256 0.744,-0.56 1.056,-0.92 0.216,0.424 0.488,0.704 0.832,0.776 0.416,0.16 0.688,-0.16 0.792,-1.032 -0.112,-0.048 -0.288,-0.168 -0.384,-0.264 -0.056,0.512 -0.136,0.856 -0.248,0.824 -0.264,-0.04 -0.48,-0.312 -0.648,-0.736 0.384,-0.552 0.688,-1.208 0.888,-1.96 z m -4.272,3.648 v -5.512 h 5.488 v 5.512 z m -0.568,-6.056 v 6.96 h 0.568 v -0.368 h 5.488 v 0.368 h 0.584 v -6.96 z m -4.392,3.76 v -2.12 h 2.296 v 2.12 z m -2.904,0 v -2.12 h 2.288 v 2.12 z m 2.904,-2.704 v -1.424 h -0.616 v 1.424 h -2.872 v 3.784 h 0.584 v -0.496 h 2.288 v 2.592 h 0.616 v -2.592 h 2.296 v 0.456 h 0.608 v -3.744 z m -15.43,1.056 h 0.936 v -0.568 h -0.936 v -1.816 h -0.56 v 1.816 h -1.024 v 0.568 h 1.024 v 2.536 c -0.416,0.176 -0.8,0.328 -1.096,0.432 l 0.232,0.592 c 0.704,-0.312 1.608,-0.712 2.456,-1.104 l -0.12,-0.528 c -0.312,0.12 -0.616,0.256 -0.912,0.384 z m 2.68,4.112 c -0.52,0 -0.624,-0.104 -0.624,-0.528 v -2.768 l 1.072,-0.456 v 2.696 h 0.568 v -2.936 l 1.112,-0.472 c 0,1.272 -0.016,2.16 -0.056,2.352 -0.04,0.176 -0.12,0.208 -0.24,0.208 -0.088,0 -0.344,0 -0.536,-0.008 0.072,0.128 0.12,0.352 0.144,0.512 0.224,0 0.528,0 0.752,-0.056 0.224,-0.056 0.384,-0.2 0.424,-0.528 0.064,-0.304 0.08,-1.496 0.08,-2.992 l 0.032,-0.112 -0.416,-0.16 -0.112,0.088 -0.128,0.112 -1.056,0.44 v -1.984 h -0.568 v 2.224 l -1.072,0.448 v -1.928 h -0.568 v 2.176 l -0.864,0.36 0.232,0.52 0.632,-0.264 v 2.52 c 0,0.856 0.272,1.072 1.176,1.072 h 1.96 c 0.84,0 1.024,-0.352 1.12,-1.44 -0.168,-0.032 -0.392,-0.128 -0.536,-0.232 -0.056,0.92 -0.136,1.136 -0.6,1.136 z m -7.656,-0.912 h 1.912 v -0.472 h -1.912 v -0.8 h 2.104 V 174.8 h -2.104 v -0.64 h -0.584 v 0.64 h -1.248 c 0.088,-0.176 0.168,-0.368 0.232,-0.552 l -0.528,-0.112 c -0.216,0.592 -0.584,1.184 -1,1.584 0.128,0.064 0.352,0.216 0.448,0.304 0.2,-0.2 0.392,-0.456 0.568,-0.736 h 1.528 v 0.8 h -1.808 v 0.472 h 1.808 v 0.96 h -2.528 v 0.504 h 5.664 v -0.504 h -2.552 z m -2.768,-3.072 c 0.664,-0.136 1.368,-0.328 2.024,-0.56 0.56,0.192 1.072,0.392 1.472,0.56 z m 3.08,-1.456 c -0.288,0.168 -0.64,0.328 -1.032,0.464 -0.544,-0.168 -1.104,-0.336 -1.616,-0.464 z m 0.632,1.456 0.296,-0.272 c -0.36,-0.16 -0.84,-0.336 -1.368,-0.52 0.416,-0.176 0.8,-0.376 1.104,-0.592 l -0.128,-0.072 h 1.376 v -0.488 h -2.912 v -0.656 h -0.584 v 0.656 h -2.792 v 0.488 h 1.52 l -0.336,0.272 c 0.472,0.112 0.984,0.256 1.488,0.416 -0.616,0.184 -1.272,0.328 -1.848,0.432 0.072,0.08 0.152,0.232 0.208,0.336 h -0.912 v 1.272 c 0,0.912 -0.088,2.184 -0.736,3.112 0.128,0.072 0.376,0.264 0.464,0.376 0.704,-1 0.84,-2.472 0.84,-3.48 v -0.784 h 5.992 v -0.496 z" aria-label="產地  中國" font-family="sans-serif" font-size="8" fill="#000000" />

  <text x="65.976097" y="72.231003" fill="#000000" font-family="sans-serif" font-size="8px" text-align="center" text-anchor="middle">reMarkable</text>
</svg>
