<svg xmlns="http://www.w3.org/2000/svg" width="34.730377mm" height="27.004837mm">

  <path d="m 11.338583,11.338583 h 48.21284 v 3.029238 h -48.21284 z m 0,37.98993 h 48.21284 v 3.029236 h -48.21284 z m 21.07732,-30.921955 c -3.268509,0 -5.899664,2.631165 -5.899664,5.899673 v 15.272811 c 0,3.268511 2.631155,5.899672 5.899664,5.899672 3.268519,0 5.900343,-2.631161 5.900343,-5.899672 V 24.306231 c 0,-3.268508 -2.631824,-5.899673 -5.900343,-5.899673 z m -0.03627,3.807095 h 0.07346 c 1.052441,0 1.899838,0.84739 1.899838,1.899819 v 15.658314 c 0,1.052436 -0.847397,1.899838 -1.899838,1.899838 h -0.07346 c -1.052439,0 -1.899837,-0.847402 -1.899837,-1.899838 V 24.113472 c 0,-1.052429 0.847398,-1.899819 1.899837,-1.899819 z M 15.268305,18.355338 15.08368,18.406488 H 11.338596 V 45.478636 H 15.21779 V 32.681874 l 3.550987,12.796764 H 22.64798 V 18.406491 h -3.879342 v 12.562912 z m 27.086309,0.05122 v 27.07216 h 3.879192 V 31.216141 l 2.684302,8.447167 h 4.069925 l 2.684298,-8.447167 v 14.262592 h 3.879193 V 18.406573 H 55.672332 L 50.953412,33.25885 46.233813,18.406573 Z" fill="#000000" />

  <path d="m 99.257154,44.392127 c -1.485451,0 -2.445162,0.252871 -2.876335,0.687852 -0.431017,0.431633 -0.683382,1.392995 -0.68683,2.884519 v 0.82199 c 0.0035,1.487985 0.255716,2.447763 0.68683,2.879499 0.43102,0.431635 1.390799,0.68281 2.876335,0.68281 1.261166,0 2.093486,-0.228518 2.501166,-0.626329 0.39191,-0.385991 0.59778,-1.277436 0.58361,-2.390743 h -1.91756 c -6.9e-4,0.459253 -0.0552,0.943005 -0.24417,1.135064 -0.208528,0.211901 -0.582315,0.272312 -1.137429,0.272312 -0.589553,0 -0.994136,-0.09094 -1.192021,-0.362076 -6.86e-4,-6.86e-4 -0.0013,-0.0013 -0.002,-0.0029 -0.09634,-0.137503 -0.148821,-0.330345 -0.186594,-0.593035 -0.03777,-0.262715 -0.05558,-0.595166 -0.05558,-1.000509 v -0.822009 c 0,-0.405356 0.01773,-0.737318 0.05558,-0.999504 0.03781,-0.262171 0.09037,-0.454615 0.187579,-0.591032 0,-3.38e-4 0,-3.44e-4 0,-10e-4 0.197138,-0.274886 0.603238,-0.367131 1.193019,-0.367131 0.536719,0 0.897609,0.05232 1.109636,0.239033 0.18887,0.166342 0.25294,0.471002 0.267,0.869392 h 1.91954 c -0.0153,-1.055014 -0.23667,-1.763045 -0.63025,-2.126077 -0.40764,-0.376006 -1.22408,-0.591033 -2.451541,-0.591033 z M 79.461847,44.4717 v 7.797347 h 1.859942 v -6.103664 l 2.851564,6.103664 h 3.004321 v -7.797345 h -1.859931 v 6.00229 l -2.803927,-6.00229 z m 8.293179,0 2.763738,4.902391 v 2.894956 h 1.746397 V 49.374091 L 95.103679,44.4717 h -1.977146 l -1.732924,3.162114 -1.654552,-3.162118 z m 15.542814,0 v 7.797347 h 5.57502 v -1.51395 h -3.66347 v -1.83178 h 3.37149 v -1.23254 h -3.37149 v -1.706202 h 3.60073 v -1.512879 z m 6.48736,-31.618548 v 1.930105 h 0.27725 V 13.389 l 0.42397,1.394257 h 0.24676 L 111.15715,13.389 v 1.394257 h 0.27726 v -0.03676 -1.893329 h -0.39159 l -0.43444,1.466755 -0.4316,-1.466755 z m 1.84357,0 v 1.930105 h 0.28773 v -0.794315 h 0.38015 c 0.0793,0 0.14728,0.02454 0.2077,0.07565 0.0611,0.05169 0.10322,0.116802 0.12956,0.198581 l 0.16675,0.520088 h 0.31154 l -0.0162,-0.04938 -0.1696,-0.505379 c -0.056,-0.166887 -0.147,-0.260235 -0.25438,-0.316257 0.10213,-0.03123 0.19491,-0.07564 0.2582,-0.156541 0.0726,-0.09287 0.10861,-0.210326 0.10861,-0.345673 0,-0.118506 -0.0275,-0.227248 -0.0829,-0.32256 -0.0554,-0.09543 -0.12984,-0.160807 -0.22009,-0.191233 -0.0873,-0.02942 -0.19734,-0.04309 -0.32965,-0.04309 z m 0.28773,0.276331 h 0.49924 c 0.11594,0 0.1988,0.02598 0.25058,0.07143 0.0517,0.04547 0.0772,0.11109 0.0772,0.209078 0,0.111186 -0.0276,0.179377 -0.08,0.219594 -0.0526,0.04083 -0.14683,0.06618 -0.28201,0.06618 h -0.46496 z M 82.995381,31.38831 v -2.196217 h 11.979891 v 2.196217 z m 0,-3.041205 v -2.196216 h 11.979891 v 2.196216 z m 9.321873,7.784008 v 2.196216 h 13.128076 v -2.196216 z m 13.128076,-3.039837 v 2.196217 H 92.317254 v -2.196217 z m -8.862461,-13.37624 h 2.196216 v 11.680453 h -2.196216 z m 3.055217,0 H 101.8343 V 31.395489 H 99.638086 Z M 79.489118,16.303024 v 0.406348 7.422633 l 0.813491,-0.810843 v -6.205709 h 13.364692 l 0.809781,-0.812429 z m 24.451202,0 0.80978,0.812429 h 3.40987 v 13.166946 l 0.81349,0.810842 V 16.303024 Z M 79.489118,33.407028 v 9.728087 H 105.40661 V 42.322686 H 80.302609 v -8.104817 z m 29.484342,6.918356 -0.81349,0.810829 v 1.186473 h -1.19045 l -0.81508,0.812429 h 2.81902 z m -9.764795,-28.071569 -3.436865,3.448111 -3.436865,3.448111 6.87373,10e-7 h 6.873725 l -3.43686,-3.448112 z m 13.697945,23.455498 -3.44811,-3.436861 -3.44811,-3.436873 v 6.873734 6.873708 l 3.44811,-3.436847 z m -37.372429,-6.939831 3.448113,-3.43686 3.448101,-3.436873 v 6.873733 6.873737 L 78.982294,32.206357 Z M 113.68908,13.751239 a 2.2816724,2.2816724 0 0 1 -2.28167,2.281673 2.2816724,2.2816724 0 0 1 -2.28167,-2.281673 2.2816724,2.2816724 0 0 1 2.28167,-2.281672 2.2816724,2.2816724 0 0 1 2.28167,2.281672 z" fill="#000000" />

  <text x="10.832079" y="67.861664" font-family="sans-serif" font-size="8" fill="#000000">reMarkable 2</text>

  <text x="10.773487" y="75.552437" font-family="sans-serif" font-size="8" fill="#000000">Número de modelo: RM110</text>

  <text x="10.773487" y="82.92289" font-family="sans-serif"  font-size="8" fill="#000000">Potencial eléctrico: 5 V</text>

  <text x="10.773487" y="90.613663" font-family="sans-serif" font-size="8" fill="#000000">Corriente Nominal: 2.8 A</text>

</svg>
