<svg xmlns="http://www.w3.org/2000/svg" width="26.070093mm" height="25.12361mm">

  <path d="m 65.580774,61.680331 q 2.071676,0 3.495955,-1.476066 1.424276,-1.476073 1.424276,-3.547753 V 18.796623 q 0,-2.123472 -1.424276,-3.547748 -1.424279,-1.424279 -3.495955,-1.424279 H 32.951862 q -2.071676,0 -3.495952,1.424279 -1.42428,1.424276 -1.42428,3.547748 v 37.859889 q 0,2.07168 1.42428,3.495956 1.424276,1.424284 3.495952,1.424284 z m 0,2.693178 H 32.951862 q -3.107516,0 -5.334568,-2.227049 Q 25.39024,59.919404 25.39024,56.760098 V 18.900204 q 0,-3.159308 2.227054,-5.360464 2.227052,-2.201157 5.334568,-2.201157 h 32.628912 q 3.107515,0 5.334568,2.201157 2.227052,2.201156 2.227052,5.360464 v 37.859894 q 0,3.159306 -2.227052,5.386362 -2.227053,2.227049 -5.334568,2.227049 z m -20.19885,-12.68902 q 0,0.828678 0.310752,1.579653 0.310751,0.75099 0.880462,1.320697 0.621502,0.621505 1.372487,0.932257 0.750981,0.310745 1.579654,0.310745 0.828669,0 1.579653,-0.310745 0.750981,-0.310752 1.372484,-0.932257 0.569714,-0.569707 0.880466,-1.320697 0.310751,-0.750975 0.310751,-1.579653 0,-0.828671 -0.310751,-1.605552 -0.310752,-0.776873 -0.880466,-1.346581 -0.258959,-0.207173 -0.492022,-0.414339 -0.233062,-0.207165 -0.543814,-0.362542 -0.20717,-0.103586 -0.38844,-0.155376 -0.181271,-0.05178 -0.388441,-0.103586 l 3.521852,-3.573645 q 0.466129,0.258963 0.880462,0.569715 0.414337,0.310753 0.77688,0.673294 1.243006,1.243002 1.916301,2.874452 0.673296,1.631443 0.673296,3.44416 0,1.760927 -0.673296,3.39237 -0.673295,1.63145 -1.916301,2.874452 -1.294798,1.294799 -2.900348,1.968093 -1.60555,0.673294 -3.418266,0.673294 -1.760928,0 -3.39237,-0.673294 -1.631446,-0.673294 -2.874452,-1.968093 -1.294799,-1.243002 -1.968094,-2.874452 -0.673296,-1.631443 -0.673296,-3.39237 0,-1.812717 0.673296,-3.44416 0.673295,-1.63145 1.968094,-2.874452 L 54.238343,34.385988 57.604817,37.75246 46.573138,48.732356 q -0.569711,0.569708 -0.880462,1.346581 -0.310752,0.776881 -0.310752,1.605552 z m 7.768787,-27.656884 q 0,-0.828668 -0.310751,-1.605549 -0.310752,-0.776878 -0.880462,-1.346591 -0.621503,-0.569711 -1.372487,-0.906359 -0.750981,-0.336647 -1.57965,-0.336647 -0.828673,0 -1.579654,0.336647 -0.750984,0.336648 -1.372487,0.906359 -0.569711,0.569713 -0.880462,1.346591 -0.310751,0.776881 -0.310751,1.605549 0,0.82867 0.310751,1.579654 0.310751,0.750988 0.880462,1.320695 0.258959,0.258956 0.492022,0.44023 0.233065,0.181275 0.543817,0.336644 0.207167,0.103586 0.388437,0.181274 0.181274,0.07769 0.38844,0.129478 l -3.521851,3.521855 q -0.466126,-0.258963 -0.880462,-0.569715 -0.414336,-0.310745 -0.776877,-0.673295 -1.243006,-1.243002 -1.916301,-2.874451 -0.673296,-1.631443 -0.673296,-3.392369 0,-1.812716 0.673296,-3.418266 0.673295,-1.60555 1.916301,-2.90035 1.294795,-1.243004 2.926241,-1.9163 1.631446,-0.673295 3.392374,-0.673295 1.760923,0 3.392369,0.673295 1.631447,0.673296 2.926246,1.9163 1.243005,1.2948 1.916297,2.90035 0.673295,1.60555 0.673295,3.418266 0,1.760926 -0.673295,3.392369 -0.673292,1.631449 -1.916297,2.874451 L 44.294292,41.274315 40.927819,37.959633 51.959498,26.927954 q 0.56971,-0.569707 0.880462,-1.320695 0.310751,-0.750984 0.310751,-1.579654 z" fill="#000000" />

  <text x="13.41234" y="83.616791" font-size="10" font-family="sans-serif" fill="#000000">www.bis.gov.in</text>

</svg>
