<svg xmlns="http://www.w3.org/2000/svg" width="45mm" height="45mm">

  <path d="m 94.816,11.339016 q -2.83,0 -5.464,0.585 -2.634,0.585 -5.025,1.707 -2.39,1.122 -4.488,2.683 -2.049,1.562 -3.756,3.513 v -8.488 h -10 v 49.954 h 10 v -8.489 q 1.707,2 3.756,3.561 2.098,1.562 4.488,2.66 2.39,1.097 5.025,1.682 2.634,0.586 5.464,0.586 h 3.756 v -2.488 h -3.756 q -3.659,0 -7.025,-1.122 -3.317,-1.122 -6.122,-3.123 -2.805,-2 -4.854,-4.829 -2.098,-2.78 -3.22,-6.147 v 15.22 H 68.57 v -44.928 h 5.025 v 15.22 q 1.122,-3.365 3.22,-6.195 2.049,-2.78 4.854,-4.805 2.805,-2.024 6.122,-3.146 3.366,-1.074 7.025,-1.074 h 1.268 v 4.976 h -1.268 q -3.659,0 -6.83,1.366 -3.22,1.366 -5.586,3.732 -2.366,2.366 -3.683,5.537 -1.366,3.17 -1.366,6.83 0,3.658 1.366,6.878 1.317,3.17 3.683,5.537 2.366,2.366 5.586,3.732 3.171,1.366 6.83,1.366 h 3.756 v -10 h -3.756 q -3.171,0 -5.342,-2.147 -2.17,-2.147 -2.17,-5.366 0,-3.171 2.17,-5.318 2.17,-2.146 5.342,-2.146 h 3.756 v -2.488 h -3.756 q -2.05,0 -3.903,0.78 -1.805,0.78 -3.146,2.147 -1.342,1.366 -2.171,3.17 -0.78,1.806 -0.78,3.855 0,2.097 0.78,3.902 0.829,1.805 2.17,3.171 1.342,1.366 3.147,2.147 1.854,0.78 3.903,0.78 h 1.268 v 5.025 h -1.268 q -3.074,0 -5.805,-1.22 -2.732,-1.17 -4.781,-3.195 -2.05,-2.025 -3.22,-4.756 -1.17,-2.732 -1.17,-5.854 0,-3.074 1.17,-5.806 1.17,-2.731 3.22,-4.756 2.049,-2.024 4.78,-3.244 2.732,-1.17 5.806,-1.17 h 3.756 v -10.003 z" fill="#000000" />

  <text x="58.880604" y="72.733" font-family="sans-serif" font-size="6" fill="#000000">R-C-rMS-RM110</text>

  <path d="m 47.981778,85.161301 c 0.259534,0 0.48302,-0.201859 0.48302,-0.497439 0,-0.302789 -0.223486,-0.511857 -0.48302,-0.511857 -0.259533,0 -0.475811,0.209068 -0.475811,0.511857 0,0.29558 0.216278,0.497439 0.475811,0.497439 z m 0,3.719982 c 0.259534,0 0.48302,-0.20186 0.48302,-0.49744 0,-0.30279 -0.223486,-0.511858 -0.48302,-0.511858 -0.259533,0 -0.475811,0.209068 -0.475811,0.511858 0,0.29558 0.216278,0.49744 0.475811,0.49744 z m -3.734377,-4.412071 h -2.314174 v -0.843484 h -0.591159 v 0.843484 h -2.343011 v 0.483021 h 5.248344 z m -4.138117,2.148361 c 0,-0.475811 0.58395,-0.764182 1.528364,-0.764182 0.929995,0 1.506736,0.288371 1.506736,0.764182 0,0.483021 -0.576741,0.771392 -1.506736,0.771392 -0.944414,0 -1.528364,-0.288371 -1.528364,-0.771392 z m 1.823943,2.133943 v -0.908368 c 1.124647,-0.07209 1.809527,-0.504649 1.809527,-1.225575 0,-0.778601 -0.814647,-1.225576 -2.105106,-1.225576 -1.312087,0 -2.126734,0.446975 -2.126734,1.225576 0,0.720926 0.692091,1.160692 1.831154,1.225575 v 0.908368 h -2.631381 v 0.48302 h 5.861132 v -0.48302 z M 34.731185,86.732921 H 32.986543 V 85.56502 h 1.744642 z m 0.583951,-0.901158 h 1.492317 v 2.479987 h 0.59837 v -4.786952 h -0.59837 v 1.823945 h -1.492317 v -1.391388 h -0.583951 v 1.139064 h -1.744642 v -1.139064 h -0.58395 v 3.251377 h 2.912543 z m -1.477901,3.53254 v -1.521155 h -0.591158 v 2.004176 h 4.311141 V 89.364303 Z M 25.98636,86.206645 c 1.059762,-0.129767 2.025803,-0.598369 2.386267,-1.304876 0.353253,0.706507 1.326505,1.175109 2.386266,1.304876 l 0.209069,-0.468602 c -1.146273,-0.122558 -2.184408,-0.68488 -2.213244,-1.405807 h 2.011384 V 83.856425 H 25.98636 v 0.475811 h 2.004176 c -0.02883,0.720927 -1.066972,1.283249 -2.213245,1.405807 z m 2.379057,3.309052 c -1.016506,0 -1.614875,-0.252323 -1.614875,-0.706508 0,-0.446974 0.598369,-0.706507 1.614875,-0.706507 1.009297,0 1.614876,0.259533 1.614876,0.706507 0,0.454185 -0.605579,0.706508 -1.614876,0.706508 z m 0,-1.874408 c -1.384178,0 -2.213243,0.418137 -2.213243,1.1679 0,0.756974 0.829065,1.175111 2.213243,1.175111 1.37697,0 2.213245,-0.418137 2.213245,-1.175111 0,-0.749763 -0.836275,-1.1679 -2.213245,-1.1679 z m -2.919753,-1.038135 v 0.475812 h 5.846715 v -0.475812 z m -1.326492,-3.071147 h -0.59116 v 4.722069 h 0.59116 z M 19.54129,85.56502 c 0,-0.627206 0.475811,-1.074181 1.103016,-1.074181 0.641625,0 1.117437,0.446975 1.117437,1.074181 0,0.641625 -0.475812,1.088598 -1.117437,1.088598 -0.627205,0 -1.103016,-0.446973 -1.103016,-1.088598 z m 2.797194,0 c 0,-0.929994 -0.728135,-1.586038 -1.694178,-1.586038 -0.958831,0 -1.679759,0.656044 -1.679759,1.586038 0,0.937204 0.720928,1.600457 1.679759,1.600457 0.966043,0 1.694178,-0.663253 1.694178,-1.600457 z m -1.787898,3.799283 v -1.593247 h -0.591159 v 2.076268 h 4.354396 v -0.483021 z m -4.938333,-4.051606 v 0.48302 h 1.297668 v 2.472778 h 0.598368 v -4.736488 h -0.598368 v 1.78069 z m 0.382091,1.521154 c -0.937205,-0.331627 -1.571619,-1.139064 -1.571619,-1.982548 v -0.317207 h 1.420225 v -0.483021 h -3.453239 v 0.483021 h 1.441853 v 0.324416 c 0,0.915577 -0.670462,1.773479 -1.629294,2.119524 l 0.309999,0.461393 c 0.756972,-0.273952 1.348132,-0.872321 1.629293,-1.607666 0.281163,0.663252 0.836275,1.203947 1.557202,1.463481 z m -2.025803,2.530452 v -1.513946 h -0.598369 v 1.996967 h 4.31835 V 89.364303 Z M 6.2474314,85.572229 c 0,-0.634415 0.4758114,-1.08139 1.1102267,-1.08139 0.6344153,0 1.1102269,0.446975 1.1102269,1.08139 0,0.634416 -0.4758116,1.081389 -1.1102269,1.081389 -0.6344153,0 -1.1102267,-0.446973 -1.1102267,-1.081389 z m 2.7971946,0 c 0,-0.937203 -0.7209268,-1.593247 -1.6869679,-1.593247 -0.9660416,0 -1.686968,0.656044 -1.686968,1.593247 0,0.937205 0.7209264,1.593248 1.686968,1.593248 0.9660411,0 1.6869679,-0.656043 1.6869679,-1.593248 z M 7.1341709,87.799893 H 6.5430112 v 2.047431 H 10.854151 V 89.364303 H 7.1341709 Z M 10.565781,85.492927 V 83.524798 H 9.9746205 v 4.758115 h 0.5911605 v -2.299756 h 0.951622 v -0.49023 z" aria-label="안전인증번호 :" font-family="sans-serif" font-size="6" fill="#000000" />

  <text x="51" y="88.871216" font-family="sans-serif" font-size="6" fill="#000000">XU101555-20002A</text>

  <path d="m 47.916896,95.406536 c 0.288371,0 0.547904,-0.20907 0.547904,-0.540696 0,-0.331626 -0.259533,-0.540694 -0.547904,-0.540694 -0.288371,0 -0.540695,0.209068 -0.540695,0.540694 0,0.331626 0.252324,0.540696 0.540695,0.540696 z m 0,3.532535 c 0.288371,0 0.547904,-0.216274 0.547904,-0.540686 0,-0.331633 -0.259533,-0.547907 -0.547904,-0.547907 -0.288371,0 -0.540695,0.216274 -0.540695,0.547907 0,0.324412 0.252324,0.540686 0.540695,0.540686 z m -7.187624,-2.653005 h -1.787897 v -1.924874 h 1.787897 z m 2.06185,-1.362551 v 0.800228 h -1.485109 v -0.800228 z m -1.485109,1.276039 h 1.485109 v 1.023716 h 0.598369 v -3.82091 h -0.598369 v 1.045342 H 41.306013 V 93.88538 h -2.948588 v 2.869287 h 2.948588 z m -0.05768,3.193706 c -0.966041,0 -1.557202,-0.281167 -1.557202,-0.756969 0,-0.475812 0.591161,-0.756981 1.557202,-0.756981 0.98046,0 1.57162,0.281169 1.57162,0.756981 0,0.475802 -0.59116,0.756969 -1.57162,0.756969 z m 0,-1.97534 c -1.326505,0 -2.148361,0.439768 -2.148361,1.218371 0,0.771386 0.821856,1.218357 2.148361,1.218357 1.333714,0 2.16278,-0.446971 2.16278,-1.218357 0,-0.778603 -0.829066,-1.218371 -2.16278,-1.218371 z m -8.117611,-1.982548 h -1.607666 v -1.355341 h 1.607666 z m -2.198826,0 h -0.951622 v 0.475811 h 4.693232 v -0.475811 h -0.951623 v -1.355341 h 0.98046 v -0.475813 h -4.743698 v 0.475813 h 0.97325 z m 3.0351,3.864163 h -3.258587 v -1.074182 h 3.258587 z m 1.29046,-2.299752 v -0.475812 h -5.846714 v 0.475812 h 2.631381 v 0.756969 h -1.910451 v 2.0186 h 4.412071 v -2.0186 H 32.63329 V 96.999783 Z M 22.655685,94.635144 h 1.153482 v -0.483022 h -2.948589 v 0.483022 h 1.225576 v 0.58395 c 0,1.189529 -0.50465,2.36464 -1.405807,2.905332 l 0.360463,0.43977 c 0.641624,-0.403717 1.110227,-1.160695 1.333714,-2.047434 0.223487,0.821856 0.670461,1.513948 1.297668,1.888823 l 0.360463,-0.432549 c -0.893949,-0.504651 -1.37697,-1.629297 -1.37697,-2.753942 z m 1.730224,1.081389 h -1.066971 v 0.483021 h 1.066971 v 3.323468 h 0.562322 v -5.983687 h -0.562322 z m 1.297668,-2.328592 v 6.466707 h 0.569532 v -6.466707 z" font-family="sans-serif" font-size="6" fill="#000000" />

  <text x="51" y="98.97438" font-family="sans-serif" font-size="6" fill="#000000">tablet PC</text>

  <path d="m 47.916896,105.26607 c 0.288371,0 0.547904,-0.20906 0.547904,-0.5407 0,-0.33162 -0.259533,-0.54069 -0.547904,-0.54069 -0.288371,0 -0.540695,0.20907 -0.540695,0.54069 0,0.33164 0.252324,0.5407 0.540695,0.5407 z m 0,3.53254 c 0.288371,0 0.547904,-0.21627 0.547904,-0.5407 0,-0.33162 -0.259533,-0.5479 -0.547904,-0.5479 -0.288371,0 -0.540695,0.21628 -0.540695,0.5479 0,0.32443 0.252324,0.5407 0.540695,0.5407 z m -7.187624,-2.65301 h -1.787897 v -1.92487 h 1.787897 z m 2.06185,-1.36255 v 0.80023 h -1.485109 v -0.80023 z m -1.485109,1.27605 h 1.485109 v 1.0237 h 0.598369 v -3.82091 h -0.598369 v 1.04535 h -1.485109 v -0.56232 h -2.948588 v 2.86928 h 2.948588 z m -0.05768,3.19369 c -0.966041,0 -1.557202,-0.28116 -1.557202,-0.75697 0,-0.47581 0.591161,-0.75697 1.557202,-0.75697 0.98046,0 1.57162,0.28116 1.57162,0.75697 0,0.47581 -0.59116,0.75697 -1.57162,0.75697 z m 0,-1.97533 c -1.326505,0 -2.148361,0.43976 -2.148361,1.21836 0,0.77139 0.821856,1.21838 2.148361,1.21838 1.333714,0 2.16278,-0.44699 2.16278,-1.21838 0,-0.7786 -0.829066,-1.21836 -2.16278,-1.21836 z m -6.35855,-4.01557 h -0.569531 v 3.43162 h 0.569531 z m -3.114403,1.42744 v 0.46139 h 1.304878 v 1.48511 h 0.562322 v -3.24417 h -0.562322 v 1.29767 z m 0.699298,1.04534 c -0.706507,0.13699 -1.297666,0.16581 -2.162779,0.16581 v -1.7951 h 1.859991 v -0.47581 h -2.45115 v 2.74673 h 0.418138 c 0.980459,0 1.607666,-0.0216 2.386266,-0.16581 z m -1.276039,3.43162 v -0.67047 h 3.691144 v -1.51394 H 30.60027 v 0.4686 h 3.705563 v 0.59837 h -3.691144 v 1.58604 h 4.513 v -0.4686 z m -9.17737,-4.90231 h 3.309051 v 2.0979 h -3.309051 z m 1.960919,4.13812 v -1.57162 h 1.924874 v -3.0351 h -4.455327 v 3.0351 h 1.932085 v 1.57162 h -2.62417 v 0.49024 h 5.861133 v -0.49024 z" aria-label="모 델 명：" font-family="sans-serif" font-size="6" fill="#000000" />

  <text x="51" y="108.46581" font-family="sans-serif" font-size="6" fill="#000000">RM110 (RM111, RM112, RM113)</text>

  <path d="m 47.916896,115.13281 c 0.288371,0 0.547904,-0.20906 0.547904,-0.54069 0,-0.33163 -0.259533,-0.5407 -0.547904,-0.5407 -0.288371,0 -0.540695,0.20907 -0.540695,0.5407 0,0.33163 0.252324,0.54069 0.540695,0.54069 z m 0,3.53255 c 0.288371,0 0.547904,-0.21628 0.547904,-0.5407 0,-0.33164 -0.259533,-0.54791 -0.547904,-0.54791 -0.288371,0 -0.540695,0.21627 -0.540695,0.54791 0,0.32442 0.252324,0.5407 0.540695,0.5407 z m -8.852964,-0.92279 h 3.72719 v 1.83115 h 0.598369 v -2.30697 h -4.325559 z m 3.72719,-4.62114 v 1.15348 h -1.427434 c 0.05768,-0.23069 0.0865,-0.47581 0.0865,-0.72093 H 38.49439 v 0.48302 h 2.321384 c -0.115348,1.10302 -1.095808,1.96093 -2.660218,2.38628 l 0.237906,0.4758 c 1.384178,-0.3893 2.386266,-1.12464 2.818822,-2.14114 h 1.578833 v 0.88673 h -1.67255 v 0.48303 h 1.67255 v 0.85068 h 0.598368 v -3.85695 z m -13.964307,1.67976 v 0.48302 h 1.27604 v 1.69417 h 0.598369 v -3.84975 h -0.598369 v 1.67256 z m 0.360464,1.47069 c -0.937205,-0.33163 -1.57162,-1.14627 -1.57162,-1.97534 v -0.22349 h 1.420224 v -0.47582 h -3.453237 v 0.47582 h 1.441852 v 0.22349 c 0,0.92999 -0.663252,1.80232 -1.629293,2.15556 l 0.309998,0.46861 c 0.756973,-0.28837 1.355341,-0.89395 1.629294,-1.64372 0.281162,0.66326 0.836275,1.19674 1.557202,1.45628 z m -0.619997,2.85487 c -0.973251,0 -1.564411,-0.27396 -1.564411,-0.74257 0,-0.4686 0.59116,-0.74975 1.564411,-0.74975 0.973251,0 1.56441,0.28115 1.56441,0.74975 0,0.46861 -0.591159,0.74257 -1.56441,0.74257 z m 0,-1.9465 c -1.326505,0 -2.155571,0.43976 -2.155571,1.20393 0,0.76419 0.829066,1.20396 2.155571,1.20396 1.326504,0 2.155569,-0.43977 2.155569,-1.20396 0,-0.76417 -0.829065,-1.20393 -2.155569,-1.20393 z" aria-label="정   격：" font-family="sans-serif" font-size="6" fill="#000000" />

  <text x="51" y="118.31025" font-family="sans-serif" font-size="6" fill="#000000">5VDC,1.5A Max</text>

  <path d="m 47.916896,125.00318 c 0.288371,0 0.547904,-0.20906 0.547904,-0.5407 0,-0.33162 -0.259533,-0.54069 -0.547904,-0.54069 -0.288371,0 -0.540695,0.20907 -0.540695,0.54069 0,0.33164 0.252324,0.5407 0.540695,0.5407 z m 0,3.53254 c 0.288371,0 0.547904,-0.21628 0.547904,-0.54069 0,-0.33163 -0.259533,-0.54791 -0.547904,-0.54791 -0.288371,0 -0.540695,0.21628 -0.540695,0.54791 0,0.32441 0.252324,0.54069 0.540695,0.54069 z m -7.677854,-4.39044 h 1.434644 v -0.49023 h -3.496494 v 0.49023 h 1.4779 v 0.82185 c 0,1.09582 -0.778601,2.32139 -1.701387,2.78279 l 0.346044,0.4686 c 0.728136,-0.37489 1.355343,-1.19675 1.650922,-2.14116 0.295579,0.86511 0.901159,1.62209 1.622084,1.98255 l 0.338837,-0.47582 c -0.937205,-0.43976 -1.67255,-1.58604 -1.67255,-2.61696 z m 3.864166,1.45627 h -1.066971 v -2.60254 h -0.59116 v 6.4595 h 0.59116 v -3.35952 h 1.066971 z m -12.140389,1.20395 c 0.97325,-0.20907 1.989758,-0.8507 2.400685,-1.74464 0.410928,0.88673 1.434644,1.52114 2.422313,1.7158 l 0.237906,-0.47581 c -1.124645,-0.18024 -2.357429,-1.06697 -2.357429,-2.09789 v -0.13699 h 2.141151 v -0.48302 h -4.89509 v 0.48302 h 2.141152 v 0.13699 c 0,1.03092 -1.225576,1.93208 -2.343012,2.11952 z m 2.696265,1.33371 v -1.56441 h -0.591159 v 1.56441 h -2.638591 v 0.49024 h 5.86834 v -0.49024 z m -7.966224,-3.90743 h 1.153482 v -0.48302 h -2.94859 v 0.48302 h 1.225575 v 0.58396 c 0,1.18953 -0.504648,2.36464 -1.405805,2.90534 l 0.360462,0.43976 c 0.641625,-0.40373 1.110226,-1.1607 1.333714,-2.04743 0.223487,0.82185 0.670462,1.51395 1.297668,1.88882 l 0.360463,-0.43255 c -0.893948,-0.50465 -1.376969,-1.62929 -1.376969,-2.75394 z m 1.730223,1.0814 h -1.066971 v 0.48303 h 1.066971 v 3.32346 h 0.562323 v -5.98369 h -0.562323 z m 1.297667,-2.3286 v 6.46672 h 0.569533 v -6.46672 z" font-family="sans-serif" font-size="6" fill="#000000" />

  <text x="51" y="127.93497" font-family="sans-serif" font-size="6" fill="#000000">Dongguan Kaifa Technology Co., Ltd.</text>

  <path d="m 47.981778,134.49865 c 0.259534,0 0.48302,-0.20187 0.48302,-0.49745 0,-0.30278 -0.223486,-0.51185 -0.48302,-0.51185 -0.259533,0 -0.475811,0.20907 -0.475811,0.51185 0,0.29558 0.216278,0.49745 0.475811,0.49745 z m 0,3.71998 c 0.259534,0 0.48302,-0.20187 0.48302,-0.49745 0,-0.30278 -0.223486,-0.51185 -0.48302,-0.51185 -0.259533,0 -0.475811,0.20907 -0.475811,0.51185 0,0.29558 0.216278,0.49745 0.475811,0.49745 z m -3.40275,-2.25651 v -0.48302 h -0.915577 c 0.158604,-0.76418 0.158604,-1.35534 0.158604,-1.83836 v -0.46861 H 39.46045 v 0.47582 h 3.777655 c 0,0.48302 0,1.05255 -0.173022,1.83115 h -4.354396 v 0.48302 h 2.631381 v 1.18233 h -2.011385 v 0.4758 h 3.936258 v 1.70139 h 0.59116 v -2.17719 h -1.924874 v -1.18233 z m -13.985952,0.71372 c 0.97325,-0.20907 1.989757,-0.85069 2.400685,-1.74465 0.410928,0.88675 1.434643,1.52117 2.422312,1.71581 l 0.237907,-0.47581 c -1.124646,-0.18023 -2.35743,-1.06697 -2.35743,-2.0979 v -0.13697 h 2.141152 v -0.48302 h -4.895091 v 0.48302 h 2.141151 v 0.13697 c 0,1.03093 -1.225575,1.93208 -2.343011,2.11953 z m 2.696265,1.33371 v -1.56441 h -0.59116 v 1.56441 h -2.638592 v 0.49023 h 5.868342 v -0.49023 z m -9.984811,-3.90742 h 1.153482 v -0.48301 h -2.94859 v 0.48301 h 1.225576 v 0.58396 c 0,1.18952 -0.504648,2.36463 -1.405806,2.90533 l 0.360463,0.43977 c 0.641624,-0.40372 1.110227,-1.16069 1.333714,-2.04744 0.223487,0.82187 0.670461,1.51395 1.297668,1.88883 l 0.360464,-0.43255 c -0.89395,-0.50466 -1.376971,-1.6293 -1.376971,-2.75394 z m 1.730224,1.08139 h -1.066971 v 0.48302 h 1.066971 v 3.32348 h 0.562322 v -5.98369 h -0.562322 z m 1.297668,-2.32859 v 6.46671 h 0.569531 v -6.46671 z" aria-label="제 조 국 :" font-family="sans-serif" font-size="6" fill="#000000" />

  <text x="51" y="138.36388" font-family="sans-serif" font-size="6" fill="#000000">China</text>

  <path d="m 47.981778,144.36539 c 0.259534,0 0.48302,-0.20185 0.48302,-0.49743 0,-0.30279 -0.223486,-0.51187 -0.48302,-0.51187 -0.259533,0 -0.475811,0.20908 -0.475811,0.51187 0,0.29558 0.216278,0.49743 0.475811,0.49743 z m 0,3.71999 c 0.259534,0 0.48302,-0.20186 0.48302,-0.49744 0,-0.30278 -0.223486,-0.51186 -0.48302,-0.51186 -0.259533,0 -0.475811,0.20908 -0.475811,0.51186 0,0.29558 0.216278,0.49744 0.475811,0.49744 z m -5.8539,-2.27813 v 0.3893 h 1.283249 v 0.33884 h 0.591161 v -3.79928 h -0.591161 v 3.07114 z m -1.348133,-2.53766 c 0.634417,0 1.038134,0.21628 1.038134,0.56232 0,0.33163 -0.403717,0.55511 -1.038134,0.55511 -0.627206,0 -1.038134,-0.22348 -1.038134,-0.55511 0,-0.34604 0.410928,-0.56232 1.038134,-0.56232 z m 0,1.52116 c 0.958833,0 1.593248,-0.36768 1.593248,-0.95884 0,-0.60558 -0.634415,-0.97324 -1.593248,-0.97324 -0.958831,0 -1.593248,0.36766 -1.593248,0.97324 0,0.59116 0.634417,0.95884 1.593248,0.95884 z m -0.331627,1.76626 h 0.591161 v -0.99488 c 0.627206,-0.0361 1.26883,-0.0865 1.896037,-0.17302 l -0.03604,-0.38929 c -1.384181,0.1586 -2.963009,0.16581 -4.210211,0.16581 l 0.07209,0.44697 c 0.519068,0 1.0886,-0.007 1.686969,-0.0216 z m -0.180231,2.12673 v -0.56232 h 3.734401 v -1.34814 h -4.33277 v 0.42535 h 3.756027 v 0.51907 h -3.741608 v 1.40581 h 4.541837 v -0.43977 z m -3.460434,-1.16068 h 0.59837 v -4.78695 h -0.59837 v 0.83627 H 34.98351 v 0.47581 h 1.823943 v 0.76419 H 34.98351 v 0.46859 h 1.823943 z m -1.066971,-1.68697 c -0.966042,0.17302 -1.809525,0.22349 -2.696264,0.23069 v -2.86928 h -0.591161 v 3.36672 h 0.490231 c 0.951623,0 1.823944,-0.0504 2.862078,-0.2379 z m -1.888827,2.73231 v -1.45627 h -0.59116 v 1.93929 h 4.311141 v -0.48302 z m -7.872505,-2.02581 c 0.973251,-0.20907 1.989758,-0.85068 2.400686,-1.74464 0.410928,0.88674 1.434645,1.52116 2.422313,1.71581 l 0.237906,-0.47581 c -1.124646,-0.18023 -2.35743,-1.06698 -2.35743,-2.0979 v -0.13697 h 2.141151 v -0.48302 h -4.89509 v 0.48302 h 2.141151 v 0.13697 c 0,1.03092 -1.225574,1.93208 -2.343011,2.11953 z m 2.696266,1.33372 v -1.56442 h -0.59116 v 1.56442 h -2.638592 v 0.49022 h 5.868343 v -0.49022 z m -7.966227,-3.90742 h 1.153484 v -0.48302 h -2.94859 v 0.48302 h 1.225575 v 0.58394 c 0,1.18954 -0.504648,2.36465 -1.405807,2.90534 l 0.360463,0.43976 c 0.641626,-0.40371 1.110227,-1.16069 1.333714,-2.04743 0.223488,0.82186 0.670462,1.51394 1.297669,1.88883 l 0.360462,-0.43255 c -0.893948,-0.50465 -1.37697,-1.6293 -1.37697,-2.75395 z m 1.730225,1.08139 h -1.066972 v 0.48302 h 1.066972 v 3.32346 h 0.562323 v -5.98368 h -0.562323 z m 1.297667,-2.3286 v 6.46672 h 0.569532 v -6.46672 z" aria-label="제조년월 :" font-family="sans-serif" font-size="6" fill="#000000" />

  <text x="51" y="147.8831" font-family="sans-serif" font-size="6" fill="#000000">[prodDate:YYYY/ww]</text>

  <path d="m 47.981778,154.16087 c 0.259534,0 0.48302,-0.20186 0.48302,-0.49743 0,-0.30279 -0.223486,-0.51187 -0.48302,-0.51187 -0.259533,0 -0.475811,0.20908 -0.475811,0.51187 0,0.29557 0.216278,0.49743 0.475811,0.49743 z m 0,3.71998 c 0.259534,0 0.48302,-0.20186 0.48302,-0.49744 0,-0.30278 -0.223486,-0.51186 -0.48302,-0.51186 -0.259533,0 -0.475811,0.20908 -0.475811,0.51186 0,0.29558 0.216278,0.49744 0.475811,0.49744 z m -7.03622,-3.76323 h 1.434645 v -0.47581 h -1.434645 v -1.00209 h -0.591159 v 1.00209 h -1.456272 v 0.47581 h 1.463481 v 0.49743 c 0,1.11744 -0.69209,2.22047 -1.643712,2.67464 l 0.331626,0.45418 c 0.735345,-0.36046 1.333713,-1.11022 1.607666,-2.01138 0.28837,0.8507 0.886739,1.54999 1.622085,1.88883 l 0.324416,-0.45419 c -0.951623,-0.42535 -1.658131,-1.4779 -1.658131,-2.55208 z m 2.501615,-1.60046 v 2.60255 h -1.398597 v 0.48302 h 1.398597 v 3.40277 h 0.59116 v -6.48834 z m -7.562506,2.89813 c -0.98046,0.17302 -1.809525,0.21627 -2.941379,0.21627 v -0.92999 h 2.314174 v -1.79511 h -2.912544 v 0.48302 h 2.328594 v 0.8579 h -2.314175 v 1.8672 h 0.511857 c 1.196738,0 2.047432,-0.0432 3.071147,-0.21627 z m -2.991844,1.85999 h 3.611841 v 1.70859 h 0.59116 v -2.18441 h -4.203001 z m 5.161833,-3.09278 h -0.958832 v -1.65091 h -0.59116 v 3.92904 h 0.59116 v -1.7879 h 0.958832 z m -11.945739,0.37488 c 0,-0.64162 0.468603,-1.10301 1.103018,-1.10301 0.627206,0 1.095808,0.46139 1.095808,1.10301 0,0.64163 -0.468602,1.10303 -1.095808,1.10303 -0.634415,0 -1.103018,-0.4614 -1.103018,-1.10303 z m 4.066025,-0.54069 v 1.07418 h -1.391388 c 0.05768,-0.16581 0.08652,-0.34605 0.08652,-0.53349 0,-0.19464 -0.02884,-0.37488 -0.08652,-0.54069 z m 0,1.54998 v 1.73745 h 0.59837 v -4.77253 h -0.59837 v 1.00929 H 28.53123 c -0.302788,-0.37488 -0.764182,-0.60558 -1.319295,-0.60558 -0.951624,0 -1.665341,0.67766 -1.665341,1.62208 0,0.94441 0.713717,1.62208 1.665341,1.62208 0.555113,0 1.023715,-0.23069 1.326505,-0.61279 z m -2.94138,2.7972 v -1.54998 h -0.598368 v 2.033 h 4.318349 v -0.48302 z m -2.8881,-4.98937 v 0.69347 q -0.404817,-0.19361 -0.763872,-0.28866 -0.359055,-0.0951 -0.693468,-0.0951 -0.580825,0 -0.897639,0.22528 -0.313293,0.2253 -0.313293,0.64067 0,0.3485 0.207689,0.52802 0.211208,0.17601 0.795553,0.28514 l 0.42946,0.0879 q 0.795552,0.15137 1.172209,0.53505 0.380175,0.3802 0.380175,1.02086 0,0.76387 -0.513942,1.15814 -0.510421,0.39425 -1.499583,0.39425 -0.373136,0 -0.795553,-0.0845 -0.418898,-0.0845 -0.869477,-0.24993 v -0.7322 q 0.432978,0.24291 0.848354,0.36611 0.415379,0.12319 0.816676,0.12319 0.608986,0 0.939879,-0.23935 0.330894,-0.23937 0.330894,-0.68291 0,-0.38722 -0.239369,-0.60548 -0.23585,-0.21824 -0.777953,-0.32736 l -0.432978,-0.0844 q -0.795555,-0.1584 -1.151089,-0.49634 -0.355535,-0.33793 -0.355535,-0.93988 0,-0.69699 0.4893,-1.0983 0.492821,-0.40128 1.355258,-0.40128 0.369616,0 0.753311,0.0669 0.383697,0.0669 0.784993,0.20064 z m -4.456507,-0.17248 h 0.598425 l -1.830478,5.9244 h -0.598425 z m -4.298103,0.70051 -0.964521,2.61547 h 1.932564 z m -0.401296,-0.70051 h 0.806114 l 2.002965,5.25557 h -0.739232 l -0.478739,-1.34821 h -2.369062 l -0.478739,1.34821 h -0.749792 z" aria-label="A/S연락처 :" font-family="sans-serif" font-size="6" fill="#000000" />

  <text x="51" y="158.00587" font-family="sans-serif" font-size="6" fill="#000000">82-70-7826-4808</text>
</svg>
